%TF.GenerationSoftware,KiCad,Pcbnew,(5.1.6)-1*%
%TF.CreationDate,2021-02-12T09:00:22-06:00*%
%TF.ProjectId,E4E2107,45344532-3130-4372-9e6b-696361645f70,A*%
%TF.SameCoordinates,Original*%
%TF.FileFunction,Legend,Top*%
%TF.FilePolarity,Positive*%
%FSLAX46Y46*%
G04 Gerber Fmt 4.6, Leading zero omitted, Abs format (unit mm)*
G04 Created by KiCad (PCBNEW (5.1.6)-1) date 2021-02-12 09:00:22*
%MOMM*%
%LPD*%
G01*
G04 APERTURE LIST*
%ADD10C,0.120000*%
%ADD11C,0.150000*%
G04 APERTURE END LIST*
D10*
%TO.C,J103*%
X268670000Y-61870000D02*
X271330000Y-61870000D01*
X268670000Y-56730000D02*
X268670000Y-61870000D01*
X271330000Y-56730000D02*
X271330000Y-61870000D01*
X268670000Y-56730000D02*
X271330000Y-56730000D01*
X268670000Y-55460000D02*
X268670000Y-54130000D01*
X268670000Y-54130000D02*
X270000000Y-54130000D01*
%TO.C,J101*%
X28670000Y-61870000D02*
X31330000Y-61870000D01*
X28670000Y-56730000D02*
X28670000Y-61870000D01*
X31330000Y-56730000D02*
X31330000Y-61870000D01*
X28670000Y-56730000D02*
X31330000Y-56730000D01*
X28670000Y-55460000D02*
X28670000Y-54130000D01*
X28670000Y-54130000D02*
X30000000Y-54130000D01*
%TO.C,J104*%
X106580000Y-62420000D02*
X106580000Y-63750000D01*
X105250000Y-62420000D02*
X106580000Y-62420000D01*
X103980000Y-62420000D02*
X103980000Y-65080000D01*
X103980000Y-65080000D02*
X101380000Y-65080000D01*
X103980000Y-62420000D02*
X101380000Y-62420000D01*
X101380000Y-62420000D02*
X101380000Y-65080000D01*
D11*
%TO.C,U101*%
X115500000Y-65450000D02*
X113750000Y-65450000D01*
X115500000Y-70755000D02*
X121000000Y-70755000D01*
X115500000Y-65245000D02*
X121000000Y-65245000D01*
X115500000Y-70755000D02*
X115500000Y-70455000D01*
X121000000Y-70755000D02*
X121000000Y-70455000D01*
X121000000Y-65245000D02*
X121000000Y-65545000D01*
X115500000Y-65245000D02*
X115500000Y-65450000D01*
D10*
%TO.C,R104*%
X115124721Y-64260000D02*
X115450279Y-64260000D01*
X115124721Y-63240000D02*
X115450279Y-63240000D01*
%TO.C,R103*%
X109875279Y-63240000D02*
X109549721Y-63240000D01*
X109875279Y-64260000D02*
X109549721Y-64260000D01*
%TO.C,R102*%
X102912779Y-68740000D02*
X102587221Y-68740000D01*
X102912779Y-69760000D02*
X102587221Y-69760000D01*
%TO.C,R101*%
X102912779Y-66490000D02*
X102587221Y-66490000D01*
X102912779Y-67510000D02*
X102587221Y-67510000D01*
%TO.C,J102*%
X143330000Y-64370000D02*
X143330000Y-65700000D01*
X142000000Y-64370000D02*
X143330000Y-64370000D01*
X140730000Y-64370000D02*
X140730000Y-67030000D01*
X140730000Y-67030000D02*
X127970000Y-67030000D01*
X140730000Y-64370000D02*
X127970000Y-64370000D01*
X127970000Y-64370000D02*
X127970000Y-67030000D01*
%TO.C,D120*%
X267650000Y-60750000D02*
X260350000Y-60750000D01*
X267650000Y-59600000D02*
X267650000Y-60750000D01*
X267650000Y-55250000D02*
X260350000Y-55250000D01*
%TO.C,D119*%
X147650000Y-60750000D02*
X140350000Y-60750000D01*
X147650000Y-59600000D02*
X147650000Y-60750000D01*
X147650000Y-55250000D02*
X140350000Y-55250000D01*
%TO.C,D118*%
X255650000Y-60750000D02*
X248350000Y-60750000D01*
X255650000Y-59600000D02*
X255650000Y-60750000D01*
X255650000Y-55250000D02*
X248350000Y-55250000D01*
%TO.C,D117*%
X135650000Y-60750000D02*
X128350000Y-60750000D01*
X135650000Y-59600000D02*
X135650000Y-60750000D01*
X135650000Y-55250000D02*
X128350000Y-55250000D01*
%TO.C,D116*%
X242700000Y-60750000D02*
X235400000Y-60750000D01*
X242700000Y-59600000D02*
X242700000Y-60750000D01*
X242700000Y-55250000D02*
X235400000Y-55250000D01*
%TO.C,D115*%
X123650000Y-60750000D02*
X116350000Y-60750000D01*
X123650000Y-59600000D02*
X123650000Y-60750000D01*
X123650000Y-55250000D02*
X116350000Y-55250000D01*
%TO.C,D114*%
X231650000Y-60750000D02*
X224350000Y-60750000D01*
X231650000Y-59600000D02*
X231650000Y-60750000D01*
X231650000Y-55250000D02*
X224350000Y-55250000D01*
%TO.C,D113*%
X111650000Y-60750000D02*
X104350000Y-60750000D01*
X111650000Y-59600000D02*
X111650000Y-60750000D01*
X111650000Y-55250000D02*
X104350000Y-55250000D01*
%TO.C,D112*%
X219650000Y-60750000D02*
X212350000Y-60750000D01*
X219650000Y-59600000D02*
X219650000Y-60750000D01*
X219650000Y-55250000D02*
X212350000Y-55250000D01*
%TO.C,D111*%
X99650000Y-60750000D02*
X92350000Y-60750000D01*
X99650000Y-59600000D02*
X99650000Y-60750000D01*
X99650000Y-55250000D02*
X92350000Y-55250000D01*
%TO.C,D110*%
X207650000Y-60750000D02*
X200350000Y-60750000D01*
X207650000Y-59600000D02*
X207650000Y-60750000D01*
X207650000Y-55250000D02*
X200350000Y-55250000D01*
%TO.C,D109*%
X87650000Y-60750000D02*
X80350000Y-60750000D01*
X87650000Y-59600000D02*
X87650000Y-60750000D01*
X87650000Y-55250000D02*
X80350000Y-55250000D01*
%TO.C,D108*%
X195650000Y-60750000D02*
X188350000Y-60750000D01*
X195650000Y-59600000D02*
X195650000Y-60750000D01*
X195650000Y-55250000D02*
X188350000Y-55250000D01*
%TO.C,D107*%
X75650000Y-60750000D02*
X68350000Y-60750000D01*
X75650000Y-59600000D02*
X75650000Y-60750000D01*
X75650000Y-55250000D02*
X68350000Y-55250000D01*
%TO.C,D106*%
X183650000Y-60750000D02*
X176350000Y-60750000D01*
X183650000Y-59600000D02*
X183650000Y-60750000D01*
X183650000Y-55250000D02*
X176350000Y-55250000D01*
%TO.C,D105*%
X64650000Y-60750000D02*
X57350000Y-60750000D01*
X64650000Y-59600000D02*
X64650000Y-60750000D01*
X64650000Y-55250000D02*
X57350000Y-55250000D01*
%TO.C,D104*%
X171650000Y-60750000D02*
X164350000Y-60750000D01*
X171650000Y-59600000D02*
X171650000Y-60750000D01*
X171650000Y-55250000D02*
X164350000Y-55250000D01*
%TO.C,D103*%
X51650000Y-60750000D02*
X44350000Y-60750000D01*
X51650000Y-59600000D02*
X51650000Y-60750000D01*
X51650000Y-55250000D02*
X44350000Y-55250000D01*
%TO.C,D102*%
X159650000Y-60750000D02*
X152350000Y-60750000D01*
X159650000Y-59600000D02*
X159650000Y-60750000D01*
X159650000Y-55250000D02*
X152350000Y-55250000D01*
%TO.C,D101*%
X39650000Y-60750000D02*
X32350000Y-60750000D01*
X39650000Y-59600000D02*
X39650000Y-60750000D01*
X39650000Y-55250000D02*
X32350000Y-55250000D01*
%TO.C,C103*%
X141258578Y-68290000D02*
X140741422Y-68290000D01*
X141258578Y-69710000D02*
X140741422Y-69710000D01*
%TO.C,C102*%
X125374721Y-65510000D02*
X125700279Y-65510000D01*
X125374721Y-64490000D02*
X125700279Y-64490000D01*
%TO.C,C101*%
X125374721Y-67760000D02*
X125700279Y-67760000D01*
X125374721Y-66740000D02*
X125700279Y-66740000D01*
%TO.C,J103*%
D11*
X268714285Y-52582380D02*
X268714285Y-53296666D01*
X268666666Y-53439523D01*
X268571428Y-53534761D01*
X268428571Y-53582380D01*
X268333333Y-53582380D01*
X269714285Y-53582380D02*
X269142857Y-53582380D01*
X269428571Y-53582380D02*
X269428571Y-52582380D01*
X269333333Y-52725238D01*
X269238095Y-52820476D01*
X269142857Y-52868095D01*
X270333333Y-52582380D02*
X270428571Y-52582380D01*
X270523809Y-52630000D01*
X270571428Y-52677619D01*
X270619047Y-52772857D01*
X270666666Y-52963333D01*
X270666666Y-53201428D01*
X270619047Y-53391904D01*
X270571428Y-53487142D01*
X270523809Y-53534761D01*
X270428571Y-53582380D01*
X270333333Y-53582380D01*
X270238095Y-53534761D01*
X270190476Y-53487142D01*
X270142857Y-53391904D01*
X270095238Y-53201428D01*
X270095238Y-52963333D01*
X270142857Y-52772857D01*
X270190476Y-52677619D01*
X270238095Y-52630000D01*
X270333333Y-52582380D01*
X271000000Y-52582380D02*
X271619047Y-52582380D01*
X271285714Y-52963333D01*
X271428571Y-52963333D01*
X271523809Y-53010952D01*
X271571428Y-53058571D01*
X271619047Y-53153809D01*
X271619047Y-53391904D01*
X271571428Y-53487142D01*
X271523809Y-53534761D01*
X271428571Y-53582380D01*
X271142857Y-53582380D01*
X271047619Y-53534761D01*
X271000000Y-53487142D01*
%TO.C,J101*%
X31964285Y-53702380D02*
X31964285Y-54416666D01*
X31916666Y-54559523D01*
X31821428Y-54654761D01*
X31678571Y-54702380D01*
X31583333Y-54702380D01*
X32964285Y-54702380D02*
X32392857Y-54702380D01*
X32678571Y-54702380D02*
X32678571Y-53702380D01*
X32583333Y-53845238D01*
X32488095Y-53940476D01*
X32392857Y-53988095D01*
X33583333Y-53702380D02*
X33678571Y-53702380D01*
X33773809Y-53750000D01*
X33821428Y-53797619D01*
X33869047Y-53892857D01*
X33916666Y-54083333D01*
X33916666Y-54321428D01*
X33869047Y-54511904D01*
X33821428Y-54607142D01*
X33773809Y-54654761D01*
X33678571Y-54702380D01*
X33583333Y-54702380D01*
X33488095Y-54654761D01*
X33440476Y-54607142D01*
X33392857Y-54511904D01*
X33345238Y-54321428D01*
X33345238Y-54083333D01*
X33392857Y-53892857D01*
X33440476Y-53797619D01*
X33488095Y-53750000D01*
X33583333Y-53702380D01*
X34869047Y-54702380D02*
X34297619Y-54702380D01*
X34583333Y-54702380D02*
X34583333Y-53702380D01*
X34488095Y-53845238D01*
X34392857Y-53940476D01*
X34297619Y-53988095D01*
%TO.C,J104*%
X101114285Y-61052380D02*
X101114285Y-61766666D01*
X101066666Y-61909523D01*
X100971428Y-62004761D01*
X100828571Y-62052380D01*
X100733333Y-62052380D01*
X102114285Y-62052380D02*
X101542857Y-62052380D01*
X101828571Y-62052380D02*
X101828571Y-61052380D01*
X101733333Y-61195238D01*
X101638095Y-61290476D01*
X101542857Y-61338095D01*
X102733333Y-61052380D02*
X102828571Y-61052380D01*
X102923809Y-61100000D01*
X102971428Y-61147619D01*
X103019047Y-61242857D01*
X103066666Y-61433333D01*
X103066666Y-61671428D01*
X103019047Y-61861904D01*
X102971428Y-61957142D01*
X102923809Y-62004761D01*
X102828571Y-62052380D01*
X102733333Y-62052380D01*
X102638095Y-62004761D01*
X102590476Y-61957142D01*
X102542857Y-61861904D01*
X102495238Y-61671428D01*
X102495238Y-61433333D01*
X102542857Y-61242857D01*
X102590476Y-61147619D01*
X102638095Y-61100000D01*
X102733333Y-61052380D01*
X103923809Y-61385714D02*
X103923809Y-62052380D01*
X103685714Y-61004761D02*
X103447619Y-61719047D01*
X104066666Y-61719047D01*
%TO.C,U101*%
X118035714Y-63702380D02*
X118035714Y-64511904D01*
X118083333Y-64607142D01*
X118130952Y-64654761D01*
X118226190Y-64702380D01*
X118416666Y-64702380D01*
X118511904Y-64654761D01*
X118559523Y-64607142D01*
X118607142Y-64511904D01*
X118607142Y-63702380D01*
X119607142Y-64702380D02*
X119035714Y-64702380D01*
X119321428Y-64702380D02*
X119321428Y-63702380D01*
X119226190Y-63845238D01*
X119130952Y-63940476D01*
X119035714Y-63988095D01*
X120226190Y-63702380D02*
X120321428Y-63702380D01*
X120416666Y-63750000D01*
X120464285Y-63797619D01*
X120511904Y-63892857D01*
X120559523Y-64083333D01*
X120559523Y-64321428D01*
X120511904Y-64511904D01*
X120464285Y-64607142D01*
X120416666Y-64654761D01*
X120321428Y-64702380D01*
X120226190Y-64702380D01*
X120130952Y-64654761D01*
X120083333Y-64607142D01*
X120035714Y-64511904D01*
X119988095Y-64321428D01*
X119988095Y-64083333D01*
X120035714Y-63892857D01*
X120083333Y-63797619D01*
X120130952Y-63750000D01*
X120226190Y-63702380D01*
X121511904Y-64702380D02*
X120940476Y-64702380D01*
X121226190Y-64702380D02*
X121226190Y-63702380D01*
X121130952Y-63845238D01*
X121035714Y-63940476D01*
X120940476Y-63988095D01*
%TO.C,R104*%
X114168452Y-62772380D02*
X113835119Y-62296190D01*
X113597023Y-62772380D02*
X113597023Y-61772380D01*
X113977976Y-61772380D01*
X114073214Y-61820000D01*
X114120833Y-61867619D01*
X114168452Y-61962857D01*
X114168452Y-62105714D01*
X114120833Y-62200952D01*
X114073214Y-62248571D01*
X113977976Y-62296190D01*
X113597023Y-62296190D01*
X115120833Y-62772380D02*
X114549404Y-62772380D01*
X114835119Y-62772380D02*
X114835119Y-61772380D01*
X114739880Y-61915238D01*
X114644642Y-62010476D01*
X114549404Y-62058095D01*
X115739880Y-61772380D02*
X115835119Y-61772380D01*
X115930357Y-61820000D01*
X115977976Y-61867619D01*
X116025595Y-61962857D01*
X116073214Y-62153333D01*
X116073214Y-62391428D01*
X116025595Y-62581904D01*
X115977976Y-62677142D01*
X115930357Y-62724761D01*
X115835119Y-62772380D01*
X115739880Y-62772380D01*
X115644642Y-62724761D01*
X115597023Y-62677142D01*
X115549404Y-62581904D01*
X115501785Y-62391428D01*
X115501785Y-62153333D01*
X115549404Y-61962857D01*
X115597023Y-61867619D01*
X115644642Y-61820000D01*
X115739880Y-61772380D01*
X116930357Y-62105714D02*
X116930357Y-62772380D01*
X116692261Y-61724761D02*
X116454166Y-62439047D01*
X117073214Y-62439047D01*
%TO.C,R103*%
X108593452Y-65632380D02*
X108260119Y-65156190D01*
X108022023Y-65632380D02*
X108022023Y-64632380D01*
X108402976Y-64632380D01*
X108498214Y-64680000D01*
X108545833Y-64727619D01*
X108593452Y-64822857D01*
X108593452Y-64965714D01*
X108545833Y-65060952D01*
X108498214Y-65108571D01*
X108402976Y-65156190D01*
X108022023Y-65156190D01*
X109545833Y-65632380D02*
X108974404Y-65632380D01*
X109260119Y-65632380D02*
X109260119Y-64632380D01*
X109164880Y-64775238D01*
X109069642Y-64870476D01*
X108974404Y-64918095D01*
X110164880Y-64632380D02*
X110260119Y-64632380D01*
X110355357Y-64680000D01*
X110402976Y-64727619D01*
X110450595Y-64822857D01*
X110498214Y-65013333D01*
X110498214Y-65251428D01*
X110450595Y-65441904D01*
X110402976Y-65537142D01*
X110355357Y-65584761D01*
X110260119Y-65632380D01*
X110164880Y-65632380D01*
X110069642Y-65584761D01*
X110022023Y-65537142D01*
X109974404Y-65441904D01*
X109926785Y-65251428D01*
X109926785Y-65013333D01*
X109974404Y-64822857D01*
X110022023Y-64727619D01*
X110069642Y-64680000D01*
X110164880Y-64632380D01*
X110831547Y-64632380D02*
X111450595Y-64632380D01*
X111117261Y-65013333D01*
X111260119Y-65013333D01*
X111355357Y-65060952D01*
X111402976Y-65108571D01*
X111450595Y-65203809D01*
X111450595Y-65441904D01*
X111402976Y-65537142D01*
X111355357Y-65584761D01*
X111260119Y-65632380D01*
X110974404Y-65632380D01*
X110879166Y-65584761D01*
X110831547Y-65537142D01*
%TO.C,R102*%
X105880952Y-69702380D02*
X105547619Y-69226190D01*
X105309523Y-69702380D02*
X105309523Y-68702380D01*
X105690476Y-68702380D01*
X105785714Y-68750000D01*
X105833333Y-68797619D01*
X105880952Y-68892857D01*
X105880952Y-69035714D01*
X105833333Y-69130952D01*
X105785714Y-69178571D01*
X105690476Y-69226190D01*
X105309523Y-69226190D01*
X106833333Y-69702380D02*
X106261904Y-69702380D01*
X106547619Y-69702380D02*
X106547619Y-68702380D01*
X106452380Y-68845238D01*
X106357142Y-68940476D01*
X106261904Y-68988095D01*
X107452380Y-68702380D02*
X107547619Y-68702380D01*
X107642857Y-68750000D01*
X107690476Y-68797619D01*
X107738095Y-68892857D01*
X107785714Y-69083333D01*
X107785714Y-69321428D01*
X107738095Y-69511904D01*
X107690476Y-69607142D01*
X107642857Y-69654761D01*
X107547619Y-69702380D01*
X107452380Y-69702380D01*
X107357142Y-69654761D01*
X107309523Y-69607142D01*
X107261904Y-69511904D01*
X107214285Y-69321428D01*
X107214285Y-69083333D01*
X107261904Y-68892857D01*
X107309523Y-68797619D01*
X107357142Y-68750000D01*
X107452380Y-68702380D01*
X108166666Y-68797619D02*
X108214285Y-68750000D01*
X108309523Y-68702380D01*
X108547619Y-68702380D01*
X108642857Y-68750000D01*
X108690476Y-68797619D01*
X108738095Y-68892857D01*
X108738095Y-68988095D01*
X108690476Y-69130952D01*
X108119047Y-69702380D01*
X108738095Y-69702380D01*
%TO.C,R101*%
X105918452Y-67452380D02*
X105585119Y-66976190D01*
X105347023Y-67452380D02*
X105347023Y-66452380D01*
X105727976Y-66452380D01*
X105823214Y-66500000D01*
X105870833Y-66547619D01*
X105918452Y-66642857D01*
X105918452Y-66785714D01*
X105870833Y-66880952D01*
X105823214Y-66928571D01*
X105727976Y-66976190D01*
X105347023Y-66976190D01*
X106870833Y-67452380D02*
X106299404Y-67452380D01*
X106585119Y-67452380D02*
X106585119Y-66452380D01*
X106489880Y-66595238D01*
X106394642Y-66690476D01*
X106299404Y-66738095D01*
X107489880Y-66452380D02*
X107585119Y-66452380D01*
X107680357Y-66500000D01*
X107727976Y-66547619D01*
X107775595Y-66642857D01*
X107823214Y-66833333D01*
X107823214Y-67071428D01*
X107775595Y-67261904D01*
X107727976Y-67357142D01*
X107680357Y-67404761D01*
X107585119Y-67452380D01*
X107489880Y-67452380D01*
X107394642Y-67404761D01*
X107347023Y-67357142D01*
X107299404Y-67261904D01*
X107251785Y-67071428D01*
X107251785Y-66833333D01*
X107299404Y-66642857D01*
X107347023Y-66547619D01*
X107394642Y-66500000D01*
X107489880Y-66452380D01*
X108775595Y-67452380D02*
X108204166Y-67452380D01*
X108489880Y-67452380D02*
X108489880Y-66452380D01*
X108394642Y-66595238D01*
X108299404Y-66690476D01*
X108204166Y-66738095D01*
%TO.C,J102*%
X143782380Y-66985714D02*
X144496666Y-66985714D01*
X144639523Y-67033333D01*
X144734761Y-67128571D01*
X144782380Y-67271428D01*
X144782380Y-67366666D01*
X144782380Y-65985714D02*
X144782380Y-66557142D01*
X144782380Y-66271428D02*
X143782380Y-66271428D01*
X143925238Y-66366666D01*
X144020476Y-66461904D01*
X144068095Y-66557142D01*
X143782380Y-65366666D02*
X143782380Y-65271428D01*
X143830000Y-65176190D01*
X143877619Y-65128571D01*
X143972857Y-65080952D01*
X144163333Y-65033333D01*
X144401428Y-65033333D01*
X144591904Y-65080952D01*
X144687142Y-65128571D01*
X144734761Y-65176190D01*
X144782380Y-65271428D01*
X144782380Y-65366666D01*
X144734761Y-65461904D01*
X144687142Y-65509523D01*
X144591904Y-65557142D01*
X144401428Y-65604761D01*
X144163333Y-65604761D01*
X143972857Y-65557142D01*
X143877619Y-65509523D01*
X143830000Y-65461904D01*
X143782380Y-65366666D01*
X143877619Y-64652380D02*
X143830000Y-64604761D01*
X143782380Y-64509523D01*
X143782380Y-64271428D01*
X143830000Y-64176190D01*
X143877619Y-64128571D01*
X143972857Y-64080952D01*
X144068095Y-64080952D01*
X144210952Y-64128571D01*
X144782380Y-64700000D01*
X144782380Y-64080952D01*
%TO.C,D120*%
X262309523Y-61952380D02*
X262309523Y-60952380D01*
X262547619Y-60952380D01*
X262690476Y-61000000D01*
X262785714Y-61095238D01*
X262833333Y-61190476D01*
X262880952Y-61380952D01*
X262880952Y-61523809D01*
X262833333Y-61714285D01*
X262785714Y-61809523D01*
X262690476Y-61904761D01*
X262547619Y-61952380D01*
X262309523Y-61952380D01*
X263833333Y-61952380D02*
X263261904Y-61952380D01*
X263547619Y-61952380D02*
X263547619Y-60952380D01*
X263452380Y-61095238D01*
X263357142Y-61190476D01*
X263261904Y-61238095D01*
X264214285Y-61047619D02*
X264261904Y-61000000D01*
X264357142Y-60952380D01*
X264595238Y-60952380D01*
X264690476Y-61000000D01*
X264738095Y-61047619D01*
X264785714Y-61142857D01*
X264785714Y-61238095D01*
X264738095Y-61380952D01*
X264166666Y-61952380D01*
X264785714Y-61952380D01*
X265404761Y-60952380D02*
X265500000Y-60952380D01*
X265595238Y-61000000D01*
X265642857Y-61047619D01*
X265690476Y-61142857D01*
X265738095Y-61333333D01*
X265738095Y-61571428D01*
X265690476Y-61761904D01*
X265642857Y-61857142D01*
X265595238Y-61904761D01*
X265500000Y-61952380D01*
X265404761Y-61952380D01*
X265309523Y-61904761D01*
X265261904Y-61857142D01*
X265214285Y-61761904D01*
X265166666Y-61571428D01*
X265166666Y-61333333D01*
X265214285Y-61142857D01*
X265261904Y-61047619D01*
X265309523Y-61000000D01*
X265404761Y-60952380D01*
%TO.C,D119*%
X142309523Y-61952380D02*
X142309523Y-60952380D01*
X142547619Y-60952380D01*
X142690476Y-61000000D01*
X142785714Y-61095238D01*
X142833333Y-61190476D01*
X142880952Y-61380952D01*
X142880952Y-61523809D01*
X142833333Y-61714285D01*
X142785714Y-61809523D01*
X142690476Y-61904761D01*
X142547619Y-61952380D01*
X142309523Y-61952380D01*
X143833333Y-61952380D02*
X143261904Y-61952380D01*
X143547619Y-61952380D02*
X143547619Y-60952380D01*
X143452380Y-61095238D01*
X143357142Y-61190476D01*
X143261904Y-61238095D01*
X144785714Y-61952380D02*
X144214285Y-61952380D01*
X144500000Y-61952380D02*
X144500000Y-60952380D01*
X144404761Y-61095238D01*
X144309523Y-61190476D01*
X144214285Y-61238095D01*
X145261904Y-61952380D02*
X145452380Y-61952380D01*
X145547619Y-61904761D01*
X145595238Y-61857142D01*
X145690476Y-61714285D01*
X145738095Y-61523809D01*
X145738095Y-61142857D01*
X145690476Y-61047619D01*
X145642857Y-61000000D01*
X145547619Y-60952380D01*
X145357142Y-60952380D01*
X145261904Y-61000000D01*
X145214285Y-61047619D01*
X145166666Y-61142857D01*
X145166666Y-61380952D01*
X145214285Y-61476190D01*
X145261904Y-61523809D01*
X145357142Y-61571428D01*
X145547619Y-61571428D01*
X145642857Y-61523809D01*
X145690476Y-61476190D01*
X145738095Y-61380952D01*
%TO.C,D118*%
X250309523Y-61952380D02*
X250309523Y-60952380D01*
X250547619Y-60952380D01*
X250690476Y-61000000D01*
X250785714Y-61095238D01*
X250833333Y-61190476D01*
X250880952Y-61380952D01*
X250880952Y-61523809D01*
X250833333Y-61714285D01*
X250785714Y-61809523D01*
X250690476Y-61904761D01*
X250547619Y-61952380D01*
X250309523Y-61952380D01*
X251833333Y-61952380D02*
X251261904Y-61952380D01*
X251547619Y-61952380D02*
X251547619Y-60952380D01*
X251452380Y-61095238D01*
X251357142Y-61190476D01*
X251261904Y-61238095D01*
X252785714Y-61952380D02*
X252214285Y-61952380D01*
X252500000Y-61952380D02*
X252500000Y-60952380D01*
X252404761Y-61095238D01*
X252309523Y-61190476D01*
X252214285Y-61238095D01*
X253357142Y-61380952D02*
X253261904Y-61333333D01*
X253214285Y-61285714D01*
X253166666Y-61190476D01*
X253166666Y-61142857D01*
X253214285Y-61047619D01*
X253261904Y-61000000D01*
X253357142Y-60952380D01*
X253547619Y-60952380D01*
X253642857Y-61000000D01*
X253690476Y-61047619D01*
X253738095Y-61142857D01*
X253738095Y-61190476D01*
X253690476Y-61285714D01*
X253642857Y-61333333D01*
X253547619Y-61380952D01*
X253357142Y-61380952D01*
X253261904Y-61428571D01*
X253214285Y-61476190D01*
X253166666Y-61571428D01*
X253166666Y-61761904D01*
X253214285Y-61857142D01*
X253261904Y-61904761D01*
X253357142Y-61952380D01*
X253547619Y-61952380D01*
X253642857Y-61904761D01*
X253690476Y-61857142D01*
X253738095Y-61761904D01*
X253738095Y-61571428D01*
X253690476Y-61476190D01*
X253642857Y-61428571D01*
X253547619Y-61380952D01*
%TO.C,D117*%
X130309523Y-61952380D02*
X130309523Y-60952380D01*
X130547619Y-60952380D01*
X130690476Y-61000000D01*
X130785714Y-61095238D01*
X130833333Y-61190476D01*
X130880952Y-61380952D01*
X130880952Y-61523809D01*
X130833333Y-61714285D01*
X130785714Y-61809523D01*
X130690476Y-61904761D01*
X130547619Y-61952380D01*
X130309523Y-61952380D01*
X131833333Y-61952380D02*
X131261904Y-61952380D01*
X131547619Y-61952380D02*
X131547619Y-60952380D01*
X131452380Y-61095238D01*
X131357142Y-61190476D01*
X131261904Y-61238095D01*
X132785714Y-61952380D02*
X132214285Y-61952380D01*
X132500000Y-61952380D02*
X132500000Y-60952380D01*
X132404761Y-61095238D01*
X132309523Y-61190476D01*
X132214285Y-61238095D01*
X133119047Y-60952380D02*
X133785714Y-60952380D01*
X133357142Y-61952380D01*
%TO.C,D116*%
X237359523Y-61952380D02*
X237359523Y-60952380D01*
X237597619Y-60952380D01*
X237740476Y-61000000D01*
X237835714Y-61095238D01*
X237883333Y-61190476D01*
X237930952Y-61380952D01*
X237930952Y-61523809D01*
X237883333Y-61714285D01*
X237835714Y-61809523D01*
X237740476Y-61904761D01*
X237597619Y-61952380D01*
X237359523Y-61952380D01*
X238883333Y-61952380D02*
X238311904Y-61952380D01*
X238597619Y-61952380D02*
X238597619Y-60952380D01*
X238502380Y-61095238D01*
X238407142Y-61190476D01*
X238311904Y-61238095D01*
X239835714Y-61952380D02*
X239264285Y-61952380D01*
X239550000Y-61952380D02*
X239550000Y-60952380D01*
X239454761Y-61095238D01*
X239359523Y-61190476D01*
X239264285Y-61238095D01*
X240692857Y-60952380D02*
X240502380Y-60952380D01*
X240407142Y-61000000D01*
X240359523Y-61047619D01*
X240264285Y-61190476D01*
X240216666Y-61380952D01*
X240216666Y-61761904D01*
X240264285Y-61857142D01*
X240311904Y-61904761D01*
X240407142Y-61952380D01*
X240597619Y-61952380D01*
X240692857Y-61904761D01*
X240740476Y-61857142D01*
X240788095Y-61761904D01*
X240788095Y-61523809D01*
X240740476Y-61428571D01*
X240692857Y-61380952D01*
X240597619Y-61333333D01*
X240407142Y-61333333D01*
X240311904Y-61380952D01*
X240264285Y-61428571D01*
X240216666Y-61523809D01*
%TO.C,D115*%
X118309523Y-61952380D02*
X118309523Y-60952380D01*
X118547619Y-60952380D01*
X118690476Y-61000000D01*
X118785714Y-61095238D01*
X118833333Y-61190476D01*
X118880952Y-61380952D01*
X118880952Y-61523809D01*
X118833333Y-61714285D01*
X118785714Y-61809523D01*
X118690476Y-61904761D01*
X118547619Y-61952380D01*
X118309523Y-61952380D01*
X119833333Y-61952380D02*
X119261904Y-61952380D01*
X119547619Y-61952380D02*
X119547619Y-60952380D01*
X119452380Y-61095238D01*
X119357142Y-61190476D01*
X119261904Y-61238095D01*
X120785714Y-61952380D02*
X120214285Y-61952380D01*
X120500000Y-61952380D02*
X120500000Y-60952380D01*
X120404761Y-61095238D01*
X120309523Y-61190476D01*
X120214285Y-61238095D01*
X121690476Y-60952380D02*
X121214285Y-60952380D01*
X121166666Y-61428571D01*
X121214285Y-61380952D01*
X121309523Y-61333333D01*
X121547619Y-61333333D01*
X121642857Y-61380952D01*
X121690476Y-61428571D01*
X121738095Y-61523809D01*
X121738095Y-61761904D01*
X121690476Y-61857142D01*
X121642857Y-61904761D01*
X121547619Y-61952380D01*
X121309523Y-61952380D01*
X121214285Y-61904761D01*
X121166666Y-61857142D01*
%TO.C,D114*%
X226309523Y-61952380D02*
X226309523Y-60952380D01*
X226547619Y-60952380D01*
X226690476Y-61000000D01*
X226785714Y-61095238D01*
X226833333Y-61190476D01*
X226880952Y-61380952D01*
X226880952Y-61523809D01*
X226833333Y-61714285D01*
X226785714Y-61809523D01*
X226690476Y-61904761D01*
X226547619Y-61952380D01*
X226309523Y-61952380D01*
X227833333Y-61952380D02*
X227261904Y-61952380D01*
X227547619Y-61952380D02*
X227547619Y-60952380D01*
X227452380Y-61095238D01*
X227357142Y-61190476D01*
X227261904Y-61238095D01*
X228785714Y-61952380D02*
X228214285Y-61952380D01*
X228500000Y-61952380D02*
X228500000Y-60952380D01*
X228404761Y-61095238D01*
X228309523Y-61190476D01*
X228214285Y-61238095D01*
X229642857Y-61285714D02*
X229642857Y-61952380D01*
X229404761Y-60904761D02*
X229166666Y-61619047D01*
X229785714Y-61619047D01*
%TO.C,D113*%
X106309523Y-61952380D02*
X106309523Y-60952380D01*
X106547619Y-60952380D01*
X106690476Y-61000000D01*
X106785714Y-61095238D01*
X106833333Y-61190476D01*
X106880952Y-61380952D01*
X106880952Y-61523809D01*
X106833333Y-61714285D01*
X106785714Y-61809523D01*
X106690476Y-61904761D01*
X106547619Y-61952380D01*
X106309523Y-61952380D01*
X107833333Y-61952380D02*
X107261904Y-61952380D01*
X107547619Y-61952380D02*
X107547619Y-60952380D01*
X107452380Y-61095238D01*
X107357142Y-61190476D01*
X107261904Y-61238095D01*
X108785714Y-61952380D02*
X108214285Y-61952380D01*
X108500000Y-61952380D02*
X108500000Y-60952380D01*
X108404761Y-61095238D01*
X108309523Y-61190476D01*
X108214285Y-61238095D01*
X109119047Y-60952380D02*
X109738095Y-60952380D01*
X109404761Y-61333333D01*
X109547619Y-61333333D01*
X109642857Y-61380952D01*
X109690476Y-61428571D01*
X109738095Y-61523809D01*
X109738095Y-61761904D01*
X109690476Y-61857142D01*
X109642857Y-61904761D01*
X109547619Y-61952380D01*
X109261904Y-61952380D01*
X109166666Y-61904761D01*
X109119047Y-61857142D01*
%TO.C,D112*%
X214309523Y-61952380D02*
X214309523Y-60952380D01*
X214547619Y-60952380D01*
X214690476Y-61000000D01*
X214785714Y-61095238D01*
X214833333Y-61190476D01*
X214880952Y-61380952D01*
X214880952Y-61523809D01*
X214833333Y-61714285D01*
X214785714Y-61809523D01*
X214690476Y-61904761D01*
X214547619Y-61952380D01*
X214309523Y-61952380D01*
X215833333Y-61952380D02*
X215261904Y-61952380D01*
X215547619Y-61952380D02*
X215547619Y-60952380D01*
X215452380Y-61095238D01*
X215357142Y-61190476D01*
X215261904Y-61238095D01*
X216785714Y-61952380D02*
X216214285Y-61952380D01*
X216500000Y-61952380D02*
X216500000Y-60952380D01*
X216404761Y-61095238D01*
X216309523Y-61190476D01*
X216214285Y-61238095D01*
X217166666Y-61047619D02*
X217214285Y-61000000D01*
X217309523Y-60952380D01*
X217547619Y-60952380D01*
X217642857Y-61000000D01*
X217690476Y-61047619D01*
X217738095Y-61142857D01*
X217738095Y-61238095D01*
X217690476Y-61380952D01*
X217119047Y-61952380D01*
X217738095Y-61952380D01*
%TO.C,D111*%
X94309523Y-61952380D02*
X94309523Y-60952380D01*
X94547619Y-60952380D01*
X94690476Y-61000000D01*
X94785714Y-61095238D01*
X94833333Y-61190476D01*
X94880952Y-61380952D01*
X94880952Y-61523809D01*
X94833333Y-61714285D01*
X94785714Y-61809523D01*
X94690476Y-61904761D01*
X94547619Y-61952380D01*
X94309523Y-61952380D01*
X95833333Y-61952380D02*
X95261904Y-61952380D01*
X95547619Y-61952380D02*
X95547619Y-60952380D01*
X95452380Y-61095238D01*
X95357142Y-61190476D01*
X95261904Y-61238095D01*
X96785714Y-61952380D02*
X96214285Y-61952380D01*
X96500000Y-61952380D02*
X96500000Y-60952380D01*
X96404761Y-61095238D01*
X96309523Y-61190476D01*
X96214285Y-61238095D01*
X97738095Y-61952380D02*
X97166666Y-61952380D01*
X97452380Y-61952380D02*
X97452380Y-60952380D01*
X97357142Y-61095238D01*
X97261904Y-61190476D01*
X97166666Y-61238095D01*
%TO.C,D110*%
X202309523Y-61952380D02*
X202309523Y-60952380D01*
X202547619Y-60952380D01*
X202690476Y-61000000D01*
X202785714Y-61095238D01*
X202833333Y-61190476D01*
X202880952Y-61380952D01*
X202880952Y-61523809D01*
X202833333Y-61714285D01*
X202785714Y-61809523D01*
X202690476Y-61904761D01*
X202547619Y-61952380D01*
X202309523Y-61952380D01*
X203833333Y-61952380D02*
X203261904Y-61952380D01*
X203547619Y-61952380D02*
X203547619Y-60952380D01*
X203452380Y-61095238D01*
X203357142Y-61190476D01*
X203261904Y-61238095D01*
X204785714Y-61952380D02*
X204214285Y-61952380D01*
X204500000Y-61952380D02*
X204500000Y-60952380D01*
X204404761Y-61095238D01*
X204309523Y-61190476D01*
X204214285Y-61238095D01*
X205404761Y-60952380D02*
X205500000Y-60952380D01*
X205595238Y-61000000D01*
X205642857Y-61047619D01*
X205690476Y-61142857D01*
X205738095Y-61333333D01*
X205738095Y-61571428D01*
X205690476Y-61761904D01*
X205642857Y-61857142D01*
X205595238Y-61904761D01*
X205500000Y-61952380D01*
X205404761Y-61952380D01*
X205309523Y-61904761D01*
X205261904Y-61857142D01*
X205214285Y-61761904D01*
X205166666Y-61571428D01*
X205166666Y-61333333D01*
X205214285Y-61142857D01*
X205261904Y-61047619D01*
X205309523Y-61000000D01*
X205404761Y-60952380D01*
%TO.C,D109*%
X82309523Y-61952380D02*
X82309523Y-60952380D01*
X82547619Y-60952380D01*
X82690476Y-61000000D01*
X82785714Y-61095238D01*
X82833333Y-61190476D01*
X82880952Y-61380952D01*
X82880952Y-61523809D01*
X82833333Y-61714285D01*
X82785714Y-61809523D01*
X82690476Y-61904761D01*
X82547619Y-61952380D01*
X82309523Y-61952380D01*
X83833333Y-61952380D02*
X83261904Y-61952380D01*
X83547619Y-61952380D02*
X83547619Y-60952380D01*
X83452380Y-61095238D01*
X83357142Y-61190476D01*
X83261904Y-61238095D01*
X84452380Y-60952380D02*
X84547619Y-60952380D01*
X84642857Y-61000000D01*
X84690476Y-61047619D01*
X84738095Y-61142857D01*
X84785714Y-61333333D01*
X84785714Y-61571428D01*
X84738095Y-61761904D01*
X84690476Y-61857142D01*
X84642857Y-61904761D01*
X84547619Y-61952380D01*
X84452380Y-61952380D01*
X84357142Y-61904761D01*
X84309523Y-61857142D01*
X84261904Y-61761904D01*
X84214285Y-61571428D01*
X84214285Y-61333333D01*
X84261904Y-61142857D01*
X84309523Y-61047619D01*
X84357142Y-61000000D01*
X84452380Y-60952380D01*
X85261904Y-61952380D02*
X85452380Y-61952380D01*
X85547619Y-61904761D01*
X85595238Y-61857142D01*
X85690476Y-61714285D01*
X85738095Y-61523809D01*
X85738095Y-61142857D01*
X85690476Y-61047619D01*
X85642857Y-61000000D01*
X85547619Y-60952380D01*
X85357142Y-60952380D01*
X85261904Y-61000000D01*
X85214285Y-61047619D01*
X85166666Y-61142857D01*
X85166666Y-61380952D01*
X85214285Y-61476190D01*
X85261904Y-61523809D01*
X85357142Y-61571428D01*
X85547619Y-61571428D01*
X85642857Y-61523809D01*
X85690476Y-61476190D01*
X85738095Y-61380952D01*
%TO.C,D108*%
X190309523Y-61952380D02*
X190309523Y-60952380D01*
X190547619Y-60952380D01*
X190690476Y-61000000D01*
X190785714Y-61095238D01*
X190833333Y-61190476D01*
X190880952Y-61380952D01*
X190880952Y-61523809D01*
X190833333Y-61714285D01*
X190785714Y-61809523D01*
X190690476Y-61904761D01*
X190547619Y-61952380D01*
X190309523Y-61952380D01*
X191833333Y-61952380D02*
X191261904Y-61952380D01*
X191547619Y-61952380D02*
X191547619Y-60952380D01*
X191452380Y-61095238D01*
X191357142Y-61190476D01*
X191261904Y-61238095D01*
X192452380Y-60952380D02*
X192547619Y-60952380D01*
X192642857Y-61000000D01*
X192690476Y-61047619D01*
X192738095Y-61142857D01*
X192785714Y-61333333D01*
X192785714Y-61571428D01*
X192738095Y-61761904D01*
X192690476Y-61857142D01*
X192642857Y-61904761D01*
X192547619Y-61952380D01*
X192452380Y-61952380D01*
X192357142Y-61904761D01*
X192309523Y-61857142D01*
X192261904Y-61761904D01*
X192214285Y-61571428D01*
X192214285Y-61333333D01*
X192261904Y-61142857D01*
X192309523Y-61047619D01*
X192357142Y-61000000D01*
X192452380Y-60952380D01*
X193357142Y-61380952D02*
X193261904Y-61333333D01*
X193214285Y-61285714D01*
X193166666Y-61190476D01*
X193166666Y-61142857D01*
X193214285Y-61047619D01*
X193261904Y-61000000D01*
X193357142Y-60952380D01*
X193547619Y-60952380D01*
X193642857Y-61000000D01*
X193690476Y-61047619D01*
X193738095Y-61142857D01*
X193738095Y-61190476D01*
X193690476Y-61285714D01*
X193642857Y-61333333D01*
X193547619Y-61380952D01*
X193357142Y-61380952D01*
X193261904Y-61428571D01*
X193214285Y-61476190D01*
X193166666Y-61571428D01*
X193166666Y-61761904D01*
X193214285Y-61857142D01*
X193261904Y-61904761D01*
X193357142Y-61952380D01*
X193547619Y-61952380D01*
X193642857Y-61904761D01*
X193690476Y-61857142D01*
X193738095Y-61761904D01*
X193738095Y-61571428D01*
X193690476Y-61476190D01*
X193642857Y-61428571D01*
X193547619Y-61380952D01*
%TO.C,D107*%
X70309523Y-61952380D02*
X70309523Y-60952380D01*
X70547619Y-60952380D01*
X70690476Y-61000000D01*
X70785714Y-61095238D01*
X70833333Y-61190476D01*
X70880952Y-61380952D01*
X70880952Y-61523809D01*
X70833333Y-61714285D01*
X70785714Y-61809523D01*
X70690476Y-61904761D01*
X70547619Y-61952380D01*
X70309523Y-61952380D01*
X71833333Y-61952380D02*
X71261904Y-61952380D01*
X71547619Y-61952380D02*
X71547619Y-60952380D01*
X71452380Y-61095238D01*
X71357142Y-61190476D01*
X71261904Y-61238095D01*
X72452380Y-60952380D02*
X72547619Y-60952380D01*
X72642857Y-61000000D01*
X72690476Y-61047619D01*
X72738095Y-61142857D01*
X72785714Y-61333333D01*
X72785714Y-61571428D01*
X72738095Y-61761904D01*
X72690476Y-61857142D01*
X72642857Y-61904761D01*
X72547619Y-61952380D01*
X72452380Y-61952380D01*
X72357142Y-61904761D01*
X72309523Y-61857142D01*
X72261904Y-61761904D01*
X72214285Y-61571428D01*
X72214285Y-61333333D01*
X72261904Y-61142857D01*
X72309523Y-61047619D01*
X72357142Y-61000000D01*
X72452380Y-60952380D01*
X73119047Y-60952380D02*
X73785714Y-60952380D01*
X73357142Y-61952380D01*
%TO.C,D106*%
X178309523Y-61952380D02*
X178309523Y-60952380D01*
X178547619Y-60952380D01*
X178690476Y-61000000D01*
X178785714Y-61095238D01*
X178833333Y-61190476D01*
X178880952Y-61380952D01*
X178880952Y-61523809D01*
X178833333Y-61714285D01*
X178785714Y-61809523D01*
X178690476Y-61904761D01*
X178547619Y-61952380D01*
X178309523Y-61952380D01*
X179833333Y-61952380D02*
X179261904Y-61952380D01*
X179547619Y-61952380D02*
X179547619Y-60952380D01*
X179452380Y-61095238D01*
X179357142Y-61190476D01*
X179261904Y-61238095D01*
X180452380Y-60952380D02*
X180547619Y-60952380D01*
X180642857Y-61000000D01*
X180690476Y-61047619D01*
X180738095Y-61142857D01*
X180785714Y-61333333D01*
X180785714Y-61571428D01*
X180738095Y-61761904D01*
X180690476Y-61857142D01*
X180642857Y-61904761D01*
X180547619Y-61952380D01*
X180452380Y-61952380D01*
X180357142Y-61904761D01*
X180309523Y-61857142D01*
X180261904Y-61761904D01*
X180214285Y-61571428D01*
X180214285Y-61333333D01*
X180261904Y-61142857D01*
X180309523Y-61047619D01*
X180357142Y-61000000D01*
X180452380Y-60952380D01*
X181642857Y-60952380D02*
X181452380Y-60952380D01*
X181357142Y-61000000D01*
X181309523Y-61047619D01*
X181214285Y-61190476D01*
X181166666Y-61380952D01*
X181166666Y-61761904D01*
X181214285Y-61857142D01*
X181261904Y-61904761D01*
X181357142Y-61952380D01*
X181547619Y-61952380D01*
X181642857Y-61904761D01*
X181690476Y-61857142D01*
X181738095Y-61761904D01*
X181738095Y-61523809D01*
X181690476Y-61428571D01*
X181642857Y-61380952D01*
X181547619Y-61333333D01*
X181357142Y-61333333D01*
X181261904Y-61380952D01*
X181214285Y-61428571D01*
X181166666Y-61523809D01*
%TO.C,D105*%
X59309523Y-61952380D02*
X59309523Y-60952380D01*
X59547619Y-60952380D01*
X59690476Y-61000000D01*
X59785714Y-61095238D01*
X59833333Y-61190476D01*
X59880952Y-61380952D01*
X59880952Y-61523809D01*
X59833333Y-61714285D01*
X59785714Y-61809523D01*
X59690476Y-61904761D01*
X59547619Y-61952380D01*
X59309523Y-61952380D01*
X60833333Y-61952380D02*
X60261904Y-61952380D01*
X60547619Y-61952380D02*
X60547619Y-60952380D01*
X60452380Y-61095238D01*
X60357142Y-61190476D01*
X60261904Y-61238095D01*
X61452380Y-60952380D02*
X61547619Y-60952380D01*
X61642857Y-61000000D01*
X61690476Y-61047619D01*
X61738095Y-61142857D01*
X61785714Y-61333333D01*
X61785714Y-61571428D01*
X61738095Y-61761904D01*
X61690476Y-61857142D01*
X61642857Y-61904761D01*
X61547619Y-61952380D01*
X61452380Y-61952380D01*
X61357142Y-61904761D01*
X61309523Y-61857142D01*
X61261904Y-61761904D01*
X61214285Y-61571428D01*
X61214285Y-61333333D01*
X61261904Y-61142857D01*
X61309523Y-61047619D01*
X61357142Y-61000000D01*
X61452380Y-60952380D01*
X62690476Y-60952380D02*
X62214285Y-60952380D01*
X62166666Y-61428571D01*
X62214285Y-61380952D01*
X62309523Y-61333333D01*
X62547619Y-61333333D01*
X62642857Y-61380952D01*
X62690476Y-61428571D01*
X62738095Y-61523809D01*
X62738095Y-61761904D01*
X62690476Y-61857142D01*
X62642857Y-61904761D01*
X62547619Y-61952380D01*
X62309523Y-61952380D01*
X62214285Y-61904761D01*
X62166666Y-61857142D01*
%TO.C,D104*%
X166309523Y-61952380D02*
X166309523Y-60952380D01*
X166547619Y-60952380D01*
X166690476Y-61000000D01*
X166785714Y-61095238D01*
X166833333Y-61190476D01*
X166880952Y-61380952D01*
X166880952Y-61523809D01*
X166833333Y-61714285D01*
X166785714Y-61809523D01*
X166690476Y-61904761D01*
X166547619Y-61952380D01*
X166309523Y-61952380D01*
X167833333Y-61952380D02*
X167261904Y-61952380D01*
X167547619Y-61952380D02*
X167547619Y-60952380D01*
X167452380Y-61095238D01*
X167357142Y-61190476D01*
X167261904Y-61238095D01*
X168452380Y-60952380D02*
X168547619Y-60952380D01*
X168642857Y-61000000D01*
X168690476Y-61047619D01*
X168738095Y-61142857D01*
X168785714Y-61333333D01*
X168785714Y-61571428D01*
X168738095Y-61761904D01*
X168690476Y-61857142D01*
X168642857Y-61904761D01*
X168547619Y-61952380D01*
X168452380Y-61952380D01*
X168357142Y-61904761D01*
X168309523Y-61857142D01*
X168261904Y-61761904D01*
X168214285Y-61571428D01*
X168214285Y-61333333D01*
X168261904Y-61142857D01*
X168309523Y-61047619D01*
X168357142Y-61000000D01*
X168452380Y-60952380D01*
X169642857Y-61285714D02*
X169642857Y-61952380D01*
X169404761Y-60904761D02*
X169166666Y-61619047D01*
X169785714Y-61619047D01*
%TO.C,D103*%
X46309523Y-61952380D02*
X46309523Y-60952380D01*
X46547619Y-60952380D01*
X46690476Y-61000000D01*
X46785714Y-61095238D01*
X46833333Y-61190476D01*
X46880952Y-61380952D01*
X46880952Y-61523809D01*
X46833333Y-61714285D01*
X46785714Y-61809523D01*
X46690476Y-61904761D01*
X46547619Y-61952380D01*
X46309523Y-61952380D01*
X47833333Y-61952380D02*
X47261904Y-61952380D01*
X47547619Y-61952380D02*
X47547619Y-60952380D01*
X47452380Y-61095238D01*
X47357142Y-61190476D01*
X47261904Y-61238095D01*
X48452380Y-60952380D02*
X48547619Y-60952380D01*
X48642857Y-61000000D01*
X48690476Y-61047619D01*
X48738095Y-61142857D01*
X48785714Y-61333333D01*
X48785714Y-61571428D01*
X48738095Y-61761904D01*
X48690476Y-61857142D01*
X48642857Y-61904761D01*
X48547619Y-61952380D01*
X48452380Y-61952380D01*
X48357142Y-61904761D01*
X48309523Y-61857142D01*
X48261904Y-61761904D01*
X48214285Y-61571428D01*
X48214285Y-61333333D01*
X48261904Y-61142857D01*
X48309523Y-61047619D01*
X48357142Y-61000000D01*
X48452380Y-60952380D01*
X49119047Y-60952380D02*
X49738095Y-60952380D01*
X49404761Y-61333333D01*
X49547619Y-61333333D01*
X49642857Y-61380952D01*
X49690476Y-61428571D01*
X49738095Y-61523809D01*
X49738095Y-61761904D01*
X49690476Y-61857142D01*
X49642857Y-61904761D01*
X49547619Y-61952380D01*
X49261904Y-61952380D01*
X49166666Y-61904761D01*
X49119047Y-61857142D01*
%TO.C,D102*%
X154309523Y-61952380D02*
X154309523Y-60952380D01*
X154547619Y-60952380D01*
X154690476Y-61000000D01*
X154785714Y-61095238D01*
X154833333Y-61190476D01*
X154880952Y-61380952D01*
X154880952Y-61523809D01*
X154833333Y-61714285D01*
X154785714Y-61809523D01*
X154690476Y-61904761D01*
X154547619Y-61952380D01*
X154309523Y-61952380D01*
X155833333Y-61952380D02*
X155261904Y-61952380D01*
X155547619Y-61952380D02*
X155547619Y-60952380D01*
X155452380Y-61095238D01*
X155357142Y-61190476D01*
X155261904Y-61238095D01*
X156452380Y-60952380D02*
X156547619Y-60952380D01*
X156642857Y-61000000D01*
X156690476Y-61047619D01*
X156738095Y-61142857D01*
X156785714Y-61333333D01*
X156785714Y-61571428D01*
X156738095Y-61761904D01*
X156690476Y-61857142D01*
X156642857Y-61904761D01*
X156547619Y-61952380D01*
X156452380Y-61952380D01*
X156357142Y-61904761D01*
X156309523Y-61857142D01*
X156261904Y-61761904D01*
X156214285Y-61571428D01*
X156214285Y-61333333D01*
X156261904Y-61142857D01*
X156309523Y-61047619D01*
X156357142Y-61000000D01*
X156452380Y-60952380D01*
X157166666Y-61047619D02*
X157214285Y-61000000D01*
X157309523Y-60952380D01*
X157547619Y-60952380D01*
X157642857Y-61000000D01*
X157690476Y-61047619D01*
X157738095Y-61142857D01*
X157738095Y-61238095D01*
X157690476Y-61380952D01*
X157119047Y-61952380D01*
X157738095Y-61952380D01*
%TO.C,D101*%
X34309523Y-61952380D02*
X34309523Y-60952380D01*
X34547619Y-60952380D01*
X34690476Y-61000000D01*
X34785714Y-61095238D01*
X34833333Y-61190476D01*
X34880952Y-61380952D01*
X34880952Y-61523809D01*
X34833333Y-61714285D01*
X34785714Y-61809523D01*
X34690476Y-61904761D01*
X34547619Y-61952380D01*
X34309523Y-61952380D01*
X35833333Y-61952380D02*
X35261904Y-61952380D01*
X35547619Y-61952380D02*
X35547619Y-60952380D01*
X35452380Y-61095238D01*
X35357142Y-61190476D01*
X35261904Y-61238095D01*
X36452380Y-60952380D02*
X36547619Y-60952380D01*
X36642857Y-61000000D01*
X36690476Y-61047619D01*
X36738095Y-61142857D01*
X36785714Y-61333333D01*
X36785714Y-61571428D01*
X36738095Y-61761904D01*
X36690476Y-61857142D01*
X36642857Y-61904761D01*
X36547619Y-61952380D01*
X36452380Y-61952380D01*
X36357142Y-61904761D01*
X36309523Y-61857142D01*
X36261904Y-61761904D01*
X36214285Y-61571428D01*
X36214285Y-61333333D01*
X36261904Y-61142857D01*
X36309523Y-61047619D01*
X36357142Y-61000000D01*
X36452380Y-60952380D01*
X37738095Y-61952380D02*
X37166666Y-61952380D01*
X37452380Y-61952380D02*
X37452380Y-60952380D01*
X37357142Y-61095238D01*
X37261904Y-61190476D01*
X37166666Y-61238095D01*
%TO.C,C103*%
X139880952Y-71007142D02*
X139833333Y-71054761D01*
X139690476Y-71102380D01*
X139595238Y-71102380D01*
X139452380Y-71054761D01*
X139357142Y-70959523D01*
X139309523Y-70864285D01*
X139261904Y-70673809D01*
X139261904Y-70530952D01*
X139309523Y-70340476D01*
X139357142Y-70245238D01*
X139452380Y-70150000D01*
X139595238Y-70102380D01*
X139690476Y-70102380D01*
X139833333Y-70150000D01*
X139880952Y-70197619D01*
X140833333Y-71102380D02*
X140261904Y-71102380D01*
X140547619Y-71102380D02*
X140547619Y-70102380D01*
X140452380Y-70245238D01*
X140357142Y-70340476D01*
X140261904Y-70388095D01*
X141452380Y-70102380D02*
X141547619Y-70102380D01*
X141642857Y-70150000D01*
X141690476Y-70197619D01*
X141738095Y-70292857D01*
X141785714Y-70483333D01*
X141785714Y-70721428D01*
X141738095Y-70911904D01*
X141690476Y-71007142D01*
X141642857Y-71054761D01*
X141547619Y-71102380D01*
X141452380Y-71102380D01*
X141357142Y-71054761D01*
X141309523Y-71007142D01*
X141261904Y-70911904D01*
X141214285Y-70721428D01*
X141214285Y-70483333D01*
X141261904Y-70292857D01*
X141309523Y-70197619D01*
X141357142Y-70150000D01*
X141452380Y-70102380D01*
X142119047Y-70102380D02*
X142738095Y-70102380D01*
X142404761Y-70483333D01*
X142547619Y-70483333D01*
X142642857Y-70530952D01*
X142690476Y-70578571D01*
X142738095Y-70673809D01*
X142738095Y-70911904D01*
X142690476Y-71007142D01*
X142642857Y-71054761D01*
X142547619Y-71102380D01*
X142261904Y-71102380D01*
X142166666Y-71054761D01*
X142119047Y-71007142D01*
%TO.C,C102*%
X124418452Y-63927142D02*
X124370833Y-63974761D01*
X124227976Y-64022380D01*
X124132738Y-64022380D01*
X123989880Y-63974761D01*
X123894642Y-63879523D01*
X123847023Y-63784285D01*
X123799404Y-63593809D01*
X123799404Y-63450952D01*
X123847023Y-63260476D01*
X123894642Y-63165238D01*
X123989880Y-63070000D01*
X124132738Y-63022380D01*
X124227976Y-63022380D01*
X124370833Y-63070000D01*
X124418452Y-63117619D01*
X125370833Y-64022380D02*
X124799404Y-64022380D01*
X125085119Y-64022380D02*
X125085119Y-63022380D01*
X124989880Y-63165238D01*
X124894642Y-63260476D01*
X124799404Y-63308095D01*
X125989880Y-63022380D02*
X126085119Y-63022380D01*
X126180357Y-63070000D01*
X126227976Y-63117619D01*
X126275595Y-63212857D01*
X126323214Y-63403333D01*
X126323214Y-63641428D01*
X126275595Y-63831904D01*
X126227976Y-63927142D01*
X126180357Y-63974761D01*
X126085119Y-64022380D01*
X125989880Y-64022380D01*
X125894642Y-63974761D01*
X125847023Y-63927142D01*
X125799404Y-63831904D01*
X125751785Y-63641428D01*
X125751785Y-63403333D01*
X125799404Y-63212857D01*
X125847023Y-63117619D01*
X125894642Y-63070000D01*
X125989880Y-63022380D01*
X126704166Y-63117619D02*
X126751785Y-63070000D01*
X126847023Y-63022380D01*
X127085119Y-63022380D01*
X127180357Y-63070000D01*
X127227976Y-63117619D01*
X127275595Y-63212857D01*
X127275595Y-63308095D01*
X127227976Y-63450952D01*
X126656547Y-64022380D01*
X127275595Y-64022380D01*
%TO.C,C101*%
X124380952Y-69107142D02*
X124333333Y-69154761D01*
X124190476Y-69202380D01*
X124095238Y-69202380D01*
X123952380Y-69154761D01*
X123857142Y-69059523D01*
X123809523Y-68964285D01*
X123761904Y-68773809D01*
X123761904Y-68630952D01*
X123809523Y-68440476D01*
X123857142Y-68345238D01*
X123952380Y-68250000D01*
X124095238Y-68202380D01*
X124190476Y-68202380D01*
X124333333Y-68250000D01*
X124380952Y-68297619D01*
X125333333Y-69202380D02*
X124761904Y-69202380D01*
X125047619Y-69202380D02*
X125047619Y-68202380D01*
X124952380Y-68345238D01*
X124857142Y-68440476D01*
X124761904Y-68488095D01*
X125952380Y-68202380D02*
X126047619Y-68202380D01*
X126142857Y-68250000D01*
X126190476Y-68297619D01*
X126238095Y-68392857D01*
X126285714Y-68583333D01*
X126285714Y-68821428D01*
X126238095Y-69011904D01*
X126190476Y-69107142D01*
X126142857Y-69154761D01*
X126047619Y-69202380D01*
X125952380Y-69202380D01*
X125857142Y-69154761D01*
X125809523Y-69107142D01*
X125761904Y-69011904D01*
X125714285Y-68821428D01*
X125714285Y-68583333D01*
X125761904Y-68392857D01*
X125809523Y-68297619D01*
X125857142Y-68250000D01*
X125952380Y-68202380D01*
X127238095Y-69202380D02*
X126666666Y-69202380D01*
X126952380Y-69202380D02*
X126952380Y-68202380D01*
X126857142Y-68345238D01*
X126761904Y-68440476D01*
X126666666Y-68488095D01*
%TD*%
M02*
