%TF.GenerationSoftware,KiCad,Pcbnew,(5.1.6)-1*%
%TF.CreationDate,2021-02-12T09:00:22-06:00*%
%TF.ProjectId,E4E2107,45344532-3130-4372-9e6b-696361645f70,A*%
%TF.SameCoordinates,Original*%
%TF.FileFunction,Legend,Bot*%
%TF.FilePolarity,Positive*%
%FSLAX46Y46*%
G04 Gerber Fmt 4.6, Leading zero omitted, Abs format (unit mm)*
G04 Created by KiCad (PCBNEW (5.1.6)-1) date 2021-02-12 09:00:22*
%MOMM*%
%LPD*%
G01*
G04 APERTURE LIST*
%ADD10C,0.300000*%
%ADD11C,0.100000*%
%ADD12C,0.150000*%
G04 APERTURE END LIST*
D10*
X268197857Y-56832142D02*
X267055000Y-56832142D01*
X267626428Y-57403571D02*
X267626428Y-56260714D01*
X265626428Y-55903571D02*
X266340714Y-55903571D01*
X266412142Y-56617857D01*
X266340714Y-56546428D01*
X266197857Y-56475000D01*
X265840714Y-56475000D01*
X265697857Y-56546428D01*
X265626428Y-56617857D01*
X265555000Y-56760714D01*
X265555000Y-57117857D01*
X265626428Y-57260714D01*
X265697857Y-57332142D01*
X265840714Y-57403571D01*
X266197857Y-57403571D01*
X266340714Y-57332142D01*
X266412142Y-57260714D01*
X265126428Y-55903571D02*
X264626428Y-57403571D01*
X264126428Y-55903571D01*
X267412142Y-58525000D02*
X267555000Y-58453571D01*
X267769285Y-58453571D01*
X267983571Y-58525000D01*
X268126428Y-58667857D01*
X268197857Y-58810714D01*
X268269285Y-59096428D01*
X268269285Y-59310714D01*
X268197857Y-59596428D01*
X268126428Y-59739285D01*
X267983571Y-59882142D01*
X267769285Y-59953571D01*
X267626428Y-59953571D01*
X267412142Y-59882142D01*
X267340714Y-59810714D01*
X267340714Y-59310714D01*
X267626428Y-59310714D01*
X266697857Y-59953571D02*
X266697857Y-58453571D01*
X265840714Y-59953571D01*
X265840714Y-58453571D01*
X265126428Y-59953571D02*
X265126428Y-58453571D01*
X264769285Y-58453571D01*
X264555000Y-58525000D01*
X264412142Y-58667857D01*
X264340714Y-58810714D01*
X264269285Y-59096428D01*
X264269285Y-59310714D01*
X264340714Y-59596428D01*
X264412142Y-59739285D01*
X264555000Y-59882142D01*
X264769285Y-59953571D01*
X265126428Y-59953571D01*
X35659285Y-55557142D02*
X34516428Y-55557142D01*
X35087857Y-56128571D02*
X35087857Y-54985714D01*
X33087857Y-54628571D02*
X33802142Y-54628571D01*
X33873571Y-55342857D01*
X33802142Y-55271428D01*
X33659285Y-55200000D01*
X33302142Y-55200000D01*
X33159285Y-55271428D01*
X33087857Y-55342857D01*
X33016428Y-55485714D01*
X33016428Y-55842857D01*
X33087857Y-55985714D01*
X33159285Y-56057142D01*
X33302142Y-56128571D01*
X33659285Y-56128571D01*
X33802142Y-56057142D01*
X33873571Y-55985714D01*
X32587857Y-54628571D02*
X32087857Y-56128571D01*
X31587857Y-54628571D01*
X34873571Y-58678571D02*
X34873571Y-57178571D01*
X34516428Y-57178571D01*
X34302142Y-57250000D01*
X34159285Y-57392857D01*
X34087857Y-57535714D01*
X34016428Y-57821428D01*
X34016428Y-58035714D01*
X34087857Y-58321428D01*
X34159285Y-58464285D01*
X34302142Y-58607142D01*
X34516428Y-58678571D01*
X34873571Y-58678571D01*
X33373571Y-58678571D02*
X33373571Y-57178571D01*
X32659285Y-58678571D02*
X32659285Y-57178571D01*
X31802142Y-58678571D01*
X31802142Y-57178571D01*
X34873571Y-59800000D02*
X35016428Y-59728571D01*
X35230714Y-59728571D01*
X35445000Y-59800000D01*
X35587857Y-59942857D01*
X35659285Y-60085714D01*
X35730714Y-60371428D01*
X35730714Y-60585714D01*
X35659285Y-60871428D01*
X35587857Y-61014285D01*
X35445000Y-61157142D01*
X35230714Y-61228571D01*
X35087857Y-61228571D01*
X34873571Y-61157142D01*
X34802142Y-61085714D01*
X34802142Y-60585714D01*
X35087857Y-60585714D01*
X34159285Y-61228571D02*
X34159285Y-59728571D01*
X33302142Y-61228571D01*
X33302142Y-59728571D01*
X32587857Y-61228571D02*
X32587857Y-59728571D01*
X32230714Y-59728571D01*
X32016428Y-59800000D01*
X31873571Y-59942857D01*
X31802142Y-60085714D01*
X31730714Y-60371428D01*
X31730714Y-60585714D01*
X31802142Y-60871428D01*
X31873571Y-61014285D01*
X32016428Y-61157142D01*
X32230714Y-61228571D01*
X32587857Y-61228571D01*
D11*
G36*
X120750000Y-65000000D02*
G01*
X107250000Y-65000000D01*
X107250000Y-59000000D01*
X120750000Y-59000000D01*
X120750000Y-65000000D01*
G37*
X120750000Y-65000000D02*
X107250000Y-65000000D01*
X107250000Y-59000000D01*
X120750000Y-59000000D01*
X120750000Y-65000000D01*
D10*
X126197857Y-56592857D02*
X125697857Y-56592857D01*
X125483571Y-57378571D02*
X126197857Y-57378571D01*
X126197857Y-55878571D01*
X125483571Y-55878571D01*
X124197857Y-56378571D02*
X124197857Y-57378571D01*
X124555000Y-55807142D02*
X124912142Y-56878571D01*
X123983571Y-56878571D01*
X123412142Y-56592857D02*
X122912142Y-56592857D01*
X122697857Y-57378571D02*
X123412142Y-57378571D01*
X123412142Y-55878571D01*
X122697857Y-55878571D01*
X122126428Y-56021428D02*
X122055000Y-55950000D01*
X121912142Y-55878571D01*
X121555000Y-55878571D01*
X121412142Y-55950000D01*
X121340714Y-56021428D01*
X121269285Y-56164285D01*
X121269285Y-56307142D01*
X121340714Y-56521428D01*
X122197857Y-57378571D01*
X121269285Y-57378571D01*
X119840714Y-57378571D02*
X120697857Y-57378571D01*
X120269285Y-57378571D02*
X120269285Y-55878571D01*
X120412142Y-56092857D01*
X120555000Y-56235714D01*
X120697857Y-56307142D01*
X118912142Y-55878571D02*
X118769285Y-55878571D01*
X118626428Y-55950000D01*
X118555000Y-56021428D01*
X118483571Y-56164285D01*
X118412142Y-56450000D01*
X118412142Y-56807142D01*
X118483571Y-57092857D01*
X118555000Y-57235714D01*
X118626428Y-57307142D01*
X118769285Y-57378571D01*
X118912142Y-57378571D01*
X119055000Y-57307142D01*
X119126428Y-57235714D01*
X119197857Y-57092857D01*
X119269285Y-56807142D01*
X119269285Y-56450000D01*
X119197857Y-56164285D01*
X119126428Y-56021428D01*
X119055000Y-55950000D01*
X118912142Y-55878571D01*
X117912142Y-55878571D02*
X116912142Y-55878571D01*
X117555000Y-57378571D01*
X114340714Y-57378571D02*
X114840714Y-56664285D01*
X115197857Y-57378571D02*
X115197857Y-55878571D01*
X114626428Y-55878571D01*
X114483571Y-55950000D01*
X114412142Y-56021428D01*
X114340714Y-56164285D01*
X114340714Y-56378571D01*
X114412142Y-56521428D01*
X114483571Y-56592857D01*
X114626428Y-56664285D01*
X115197857Y-56664285D01*
X113126428Y-57307142D02*
X113269285Y-57378571D01*
X113555000Y-57378571D01*
X113697857Y-57307142D01*
X113769285Y-57164285D01*
X113769285Y-56592857D01*
X113697857Y-56450000D01*
X113555000Y-56378571D01*
X113269285Y-56378571D01*
X113126428Y-56450000D01*
X113055000Y-56592857D01*
X113055000Y-56735714D01*
X113769285Y-56878571D01*
X112555000Y-56378571D02*
X112197857Y-57378571D01*
X111840714Y-56378571D01*
X111269285Y-57235714D02*
X111197857Y-57307142D01*
X111269285Y-57378571D01*
X111340714Y-57307142D01*
X111269285Y-57235714D01*
X111269285Y-57378571D01*
X111269285Y-56450000D02*
X111197857Y-56521428D01*
X111269285Y-56592857D01*
X111340714Y-56521428D01*
X111269285Y-56450000D01*
X111269285Y-56592857D01*
X109483571Y-56950000D02*
X108769285Y-56950000D01*
X109626428Y-57378571D02*
X109126428Y-55878571D01*
X108626428Y-57378571D01*
X126269285Y-62407142D02*
X126055000Y-62478571D01*
X125697857Y-62478571D01*
X125555000Y-62407142D01*
X125483571Y-62335714D01*
X125412142Y-62192857D01*
X125412142Y-62050000D01*
X125483571Y-61907142D01*
X125555000Y-61835714D01*
X125697857Y-61764285D01*
X125983571Y-61692857D01*
X126126428Y-61621428D01*
X126197857Y-61550000D01*
X126269285Y-61407142D01*
X126269285Y-61264285D01*
X126197857Y-61121428D01*
X126126428Y-61050000D01*
X125983571Y-60978571D01*
X125626428Y-60978571D01*
X125412142Y-61050000D01*
X123697857Y-60907142D02*
X124983571Y-62835714D01*
X123197857Y-62478571D02*
X123197857Y-60978571D01*
X122340714Y-62478571D01*
X122340714Y-60978571D01*
X121626428Y-62335714D02*
X121555000Y-62407142D01*
X121626428Y-62478571D01*
X121697857Y-62407142D01*
X121626428Y-62335714D01*
X121626428Y-62478571D01*
X121626428Y-61550000D02*
X121555000Y-61621428D01*
X121626428Y-61692857D01*
X121697857Y-61621428D01*
X121626428Y-61550000D01*
X121626428Y-61692857D01*
D12*
X104857142Y-61904761D02*
X104714285Y-61952380D01*
X104476190Y-61952380D01*
X104380952Y-61904761D01*
X104333333Y-61857142D01*
X104285714Y-61761904D01*
X104285714Y-61666666D01*
X104333333Y-61571428D01*
X104380952Y-61523809D01*
X104476190Y-61476190D01*
X104666666Y-61428571D01*
X104761904Y-61380952D01*
X104809523Y-61333333D01*
X104857142Y-61238095D01*
X104857142Y-61142857D01*
X104809523Y-61047619D01*
X104761904Y-61000000D01*
X104666666Y-60952380D01*
X104428571Y-60952380D01*
X104285714Y-61000000D01*
X103952380Y-60952380D02*
X103714285Y-61952380D01*
X103523809Y-61238095D01*
X103333333Y-61952380D01*
X103095238Y-60952380D01*
D10*
X128625000Y-60876428D02*
X128553571Y-60733571D01*
X128553571Y-60519285D01*
X128625000Y-60305000D01*
X128767857Y-60162142D01*
X128910714Y-60090714D01*
X129196428Y-60019285D01*
X129410714Y-60019285D01*
X129696428Y-60090714D01*
X129839285Y-60162142D01*
X129982142Y-60305000D01*
X130053571Y-60519285D01*
X130053571Y-60662142D01*
X129982142Y-60876428D01*
X129910714Y-60947857D01*
X129410714Y-60947857D01*
X129410714Y-60662142D01*
X130053571Y-61590714D02*
X128553571Y-61590714D01*
X130053571Y-62447857D01*
X128553571Y-62447857D01*
X130053571Y-63162142D02*
X128553571Y-63162142D01*
X128553571Y-63519285D01*
X128625000Y-63733571D01*
X128767857Y-63876428D01*
X128910714Y-63947857D01*
X129196428Y-64019285D01*
X129410714Y-64019285D01*
X129696428Y-63947857D01*
X129839285Y-63876428D01*
X129982142Y-63733571D01*
X130053571Y-63519285D01*
X130053571Y-63162142D01*
X130455000Y-60233571D02*
X130455000Y-61733571D01*
X132603571Y-61447857D02*
X131889285Y-60947857D01*
X132603571Y-60590714D02*
X131103571Y-60590714D01*
X131103571Y-61162142D01*
X131175000Y-61305000D01*
X131246428Y-61376428D01*
X131389285Y-61447857D01*
X131603571Y-61447857D01*
X131746428Y-61376428D01*
X131817857Y-61305000D01*
X131889285Y-61162142D01*
X131889285Y-60590714D01*
X130455000Y-61733571D02*
X130455000Y-63162142D01*
X132532142Y-62019285D02*
X132603571Y-62233571D01*
X132603571Y-62590714D01*
X132532142Y-62733571D01*
X132460714Y-62805000D01*
X132317857Y-62876428D01*
X132175000Y-62876428D01*
X132032142Y-62805000D01*
X131960714Y-62733571D01*
X131889285Y-62590714D01*
X131817857Y-62305000D01*
X131746428Y-62162142D01*
X131675000Y-62090714D01*
X131532142Y-62019285D01*
X131389285Y-62019285D01*
X131246428Y-62090714D01*
X131175000Y-62162142D01*
X131103571Y-62305000D01*
X131103571Y-62662142D01*
X131175000Y-62876428D01*
X130455000Y-63162142D02*
X130455000Y-64305000D01*
X131103571Y-63305000D02*
X131103571Y-64162142D01*
X132603571Y-63733571D02*
X131103571Y-63733571D01*
X135082142Y-60162142D02*
X135153571Y-60376428D01*
X135153571Y-60733571D01*
X135082142Y-60876428D01*
X135010714Y-60947857D01*
X134867857Y-61019285D01*
X134725000Y-61019285D01*
X134582142Y-60947857D01*
X134510714Y-60876428D01*
X134439285Y-60733571D01*
X134367857Y-60447857D01*
X134296428Y-60305000D01*
X134225000Y-60233571D01*
X134082142Y-60162142D01*
X133939285Y-60162142D01*
X133796428Y-60233571D01*
X133725000Y-60305000D01*
X133653571Y-60447857D01*
X133653571Y-60805000D01*
X133725000Y-61019285D01*
X135010714Y-62519285D02*
X135082142Y-62447857D01*
X135153571Y-62233571D01*
X135153571Y-62090714D01*
X135082142Y-61876428D01*
X134939285Y-61733571D01*
X134796428Y-61662142D01*
X134510714Y-61590714D01*
X134296428Y-61590714D01*
X134010714Y-61662142D01*
X133867857Y-61733571D01*
X133725000Y-61876428D01*
X133653571Y-62090714D01*
X133653571Y-62233571D01*
X133725000Y-62447857D01*
X133796428Y-62519285D01*
X135153571Y-63162142D02*
X133653571Y-63162142D01*
X135153571Y-64019285D02*
X134296428Y-63376428D01*
X133653571Y-64019285D02*
X134510714Y-63162142D01*
X137703571Y-59233571D02*
X136203571Y-59233571D01*
X137275000Y-59733571D01*
X136203571Y-60233571D01*
X137703571Y-60233571D01*
X137703571Y-60947857D02*
X136203571Y-60947857D01*
X137632142Y-61590714D02*
X137703571Y-61805000D01*
X137703571Y-62162142D01*
X137632142Y-62305000D01*
X137560714Y-62376428D01*
X137417857Y-62447857D01*
X137275000Y-62447857D01*
X137132142Y-62376428D01*
X137060714Y-62305000D01*
X136989285Y-62162142D01*
X136917857Y-61876428D01*
X136846428Y-61733571D01*
X136775000Y-61662142D01*
X136632142Y-61590714D01*
X136489285Y-61590714D01*
X136346428Y-61662142D01*
X136275000Y-61733571D01*
X136203571Y-61876428D01*
X136203571Y-62233571D01*
X136275000Y-62447857D01*
X136203571Y-63376428D02*
X136203571Y-63662142D01*
X136275000Y-63805000D01*
X136417857Y-63947857D01*
X136703571Y-64019285D01*
X137203571Y-64019285D01*
X137489285Y-63947857D01*
X137632142Y-63805000D01*
X137703571Y-63662142D01*
X137703571Y-63376428D01*
X137632142Y-63233571D01*
X137489285Y-63090714D01*
X137203571Y-63019285D01*
X136703571Y-63019285D01*
X136417857Y-63090714D01*
X136275000Y-63233571D01*
X136203571Y-63376428D01*
X140253571Y-59233571D02*
X138753571Y-59233571D01*
X139825000Y-59733571D01*
X138753571Y-60233571D01*
X140253571Y-60233571D01*
X138753571Y-61233571D02*
X138753571Y-61519285D01*
X138825000Y-61662142D01*
X138967857Y-61805000D01*
X139253571Y-61876428D01*
X139753571Y-61876428D01*
X140039285Y-61805000D01*
X140182142Y-61662142D01*
X140253571Y-61519285D01*
X140253571Y-61233571D01*
X140182142Y-61090714D01*
X140039285Y-60947857D01*
X139753571Y-60876428D01*
X139253571Y-60876428D01*
X138967857Y-60947857D01*
X138825000Y-61090714D01*
X138753571Y-61233571D01*
X140182142Y-62447857D02*
X140253571Y-62662142D01*
X140253571Y-63019285D01*
X140182142Y-63162142D01*
X140110714Y-63233571D01*
X139967857Y-63305000D01*
X139825000Y-63305000D01*
X139682142Y-63233571D01*
X139610714Y-63162142D01*
X139539285Y-63019285D01*
X139467857Y-62733571D01*
X139396428Y-62590714D01*
X139325000Y-62519285D01*
X139182142Y-62447857D01*
X139039285Y-62447857D01*
X138896428Y-62519285D01*
X138825000Y-62590714D01*
X138753571Y-62733571D01*
X138753571Y-63090714D01*
X138825000Y-63305000D01*
X140253571Y-63947857D02*
X138753571Y-63947857D01*
X142232142Y-60090714D02*
X142232142Y-61233571D01*
X142803571Y-60662142D02*
X141660714Y-60662142D01*
X141303571Y-62662142D02*
X141303571Y-61947857D01*
X142017857Y-61876428D01*
X141946428Y-61947857D01*
X141875000Y-62090714D01*
X141875000Y-62447857D01*
X141946428Y-62590714D01*
X142017857Y-62662142D01*
X142160714Y-62733571D01*
X142517857Y-62733571D01*
X142660714Y-62662142D01*
X142732142Y-62590714D01*
X142803571Y-62447857D01*
X142803571Y-62090714D01*
X142732142Y-61947857D01*
X142660714Y-61876428D01*
X141303571Y-63162142D02*
X142803571Y-63662142D01*
X141303571Y-64162142D01*
M02*
