%TF.GenerationSoftware,KiCad,Pcbnew,(5.1.6)-1*%
%TF.CreationDate,2021-02-12T09:00:22-06:00*%
%TF.ProjectId,E4E2107,45344532-3130-4372-9e6b-696361645f70,A*%
%TF.SameCoordinates,Original*%
%TF.FileFunction,Copper,L2,Bot*%
%TF.FilePolarity,Positive*%
%FSLAX46Y46*%
G04 Gerber Fmt 4.6, Leading zero omitted, Abs format (unit mm)*
G04 Created by KiCad (PCBNEW (5.1.6)-1) date 2021-02-12 09:00:22*
%MOMM*%
%LPD*%
G01*
G04 APERTURE LIST*
%TA.AperFunction,ComponentPad*%
%ADD10O,1.700000X1.700000*%
%TD*%
%TA.AperFunction,ComponentPad*%
%ADD11R,1.700000X1.700000*%
%TD*%
%TA.AperFunction,ViaPad*%
%ADD12C,0.800000*%
%TD*%
%TA.AperFunction,Conductor*%
%ADD13C,0.254000*%
%TD*%
G04 APERTURE END LIST*
D10*
%TO.P,J103,3*%
%TO.N,GND*%
X270000000Y-60540000D03*
%TO.P,J103,2*%
%TO.N,/DO*%
X270000000Y-58000000D03*
D11*
%TO.P,J103,1*%
%TO.N,+5V*%
X270000000Y-55460000D03*
%TD*%
D10*
%TO.P,J101,3*%
%TO.N,GND*%
X30000000Y-60540000D03*
%TO.P,J101,2*%
%TO.N,/DI*%
X30000000Y-58000000D03*
D11*
%TO.P,J101,1*%
%TO.N,+5V*%
X30000000Y-55460000D03*
%TD*%
D10*
%TO.P,J104,2*%
%TO.N,GND*%
X102710000Y-63750000D03*
D11*
%TO.P,J104,1*%
%TO.N,/~SW*%
X105250000Y-63750000D03*
%TD*%
D10*
%TO.P,J102,6*%
%TO.N,GND*%
X129300000Y-65700000D03*
%TO.P,J102,5*%
%TO.N,/~RST*%
X131840000Y-65700000D03*
%TO.P,J102,4*%
%TO.N,/SCK*%
X134380000Y-65700000D03*
%TO.P,J102,3*%
%TO.N,/MISO*%
X136920000Y-65700000D03*
%TO.P,J102,2*%
%TO.N,/MOSI*%
X139460000Y-65700000D03*
D11*
%TO.P,J102,1*%
%TO.N,+5V*%
X142000000Y-65700000D03*
%TD*%
D12*
%TO.N,GND*%
X127500000Y-67250000D03*
X127500000Y-65000000D03*
X138500000Y-69000000D03*
X32250000Y-58000000D03*
X44000000Y-58000000D03*
X68000000Y-58000000D03*
X80000000Y-58000000D03*
X104000000Y-58000000D03*
X116000000Y-58000000D03*
X128000000Y-58000000D03*
X140000000Y-58000000D03*
X164000000Y-58000000D03*
X176000000Y-58000000D03*
X188000000Y-58000000D03*
X212000000Y-58000000D03*
X112800000Y-69900000D03*
X152000000Y-58000000D03*
X224000000Y-58000000D03*
X57000000Y-58000000D03*
X235000000Y-58000000D03*
X248250000Y-58000000D03*
X260000000Y-58000000D03*
X199750000Y-58000000D03*
X92000000Y-58000000D03*
%TD*%
D13*
%TO.N,GND*%
G36*
X272348000Y-62348000D02*
G01*
X148967978Y-62348000D01*
X148940050Y-62350751D01*
X148933924Y-62350708D01*
X148924864Y-62351596D01*
X148730768Y-62371997D01*
X148672829Y-62383890D01*
X148614836Y-62394953D01*
X148606121Y-62397583D01*
X148419683Y-62455295D01*
X148365191Y-62478202D01*
X148310416Y-62500332D01*
X148302382Y-62504604D01*
X148302377Y-62504606D01*
X148302376Y-62504607D01*
X148130701Y-62597431D01*
X148081675Y-62630498D01*
X148032260Y-62662835D01*
X148025205Y-62668588D01*
X147874828Y-62792992D01*
X147833178Y-62834933D01*
X147790968Y-62876269D01*
X147785165Y-62883283D01*
X147661815Y-63034525D01*
X147629094Y-63083774D01*
X147595727Y-63132505D01*
X147591400Y-63140508D01*
X147591397Y-63140512D01*
X147591397Y-63140513D01*
X147499772Y-63312835D01*
X147477242Y-63367496D01*
X147453974Y-63421785D01*
X147451284Y-63430475D01*
X147451281Y-63430482D01*
X147451280Y-63430489D01*
X147394873Y-63617318D01*
X147383386Y-63675326D01*
X147371109Y-63733088D01*
X147370158Y-63742131D01*
X147370156Y-63742142D01*
X147370156Y-63742152D01*
X147351112Y-63936375D01*
X147351112Y-63936383D01*
X147348000Y-63967979D01*
X147348001Y-70968104D01*
X147338305Y-71066986D01*
X147318852Y-71131420D01*
X147287252Y-71190850D01*
X147244713Y-71243009D01*
X147192849Y-71285915D01*
X147133648Y-71317924D01*
X147069344Y-71337830D01*
X146972583Y-71348000D01*
X99031886Y-71348000D01*
X98933014Y-71338305D01*
X98868580Y-71318852D01*
X98809150Y-71287252D01*
X98756991Y-71244713D01*
X98714085Y-71192849D01*
X98682076Y-71133648D01*
X98662170Y-71069344D01*
X98652000Y-70972583D01*
X98652000Y-65954994D01*
X127837056Y-65954994D01*
X127914913Y-66235501D01*
X128045998Y-66495429D01*
X128225274Y-66724789D01*
X128445851Y-66914767D01*
X128699253Y-67058062D01*
X128975741Y-67149167D01*
X129045006Y-67162943D01*
X129277000Y-67026051D01*
X129277000Y-65723000D01*
X127973927Y-65723000D01*
X127837056Y-65954994D01*
X98652000Y-65954994D01*
X98652000Y-65445006D01*
X127837056Y-65445006D01*
X127973927Y-65677000D01*
X129277000Y-65677000D01*
X129277000Y-64373949D01*
X129323000Y-64373949D01*
X129323000Y-65677000D01*
X129343000Y-65677000D01*
X129343000Y-65723000D01*
X129323000Y-65723000D01*
X129323000Y-67026051D01*
X129554994Y-67162943D01*
X129624259Y-67149167D01*
X129900747Y-67058062D01*
X130154149Y-66914767D01*
X130374726Y-66724789D01*
X130554002Y-66495429D01*
X130571686Y-66460364D01*
X130692739Y-66641533D01*
X130898467Y-66847261D01*
X131140378Y-67008901D01*
X131409175Y-67120240D01*
X131694528Y-67177000D01*
X131985472Y-67177000D01*
X132270825Y-67120240D01*
X132539622Y-67008901D01*
X132781533Y-66847261D01*
X132987261Y-66641533D01*
X133110000Y-66457841D01*
X133232739Y-66641533D01*
X133438467Y-66847261D01*
X133680378Y-67008901D01*
X133949175Y-67120240D01*
X134234528Y-67177000D01*
X134525472Y-67177000D01*
X134810825Y-67120240D01*
X135079622Y-67008901D01*
X135321533Y-66847261D01*
X135527261Y-66641533D01*
X135650000Y-66457841D01*
X135772739Y-66641533D01*
X135978467Y-66847261D01*
X136220378Y-67008901D01*
X136489175Y-67120240D01*
X136774528Y-67177000D01*
X137065472Y-67177000D01*
X137350825Y-67120240D01*
X137619622Y-67008901D01*
X137861533Y-66847261D01*
X138067261Y-66641533D01*
X138190000Y-66457841D01*
X138312739Y-66641533D01*
X138518467Y-66847261D01*
X138760378Y-67008901D01*
X139029175Y-67120240D01*
X139314528Y-67177000D01*
X139605472Y-67177000D01*
X139890825Y-67120240D01*
X140159622Y-67008901D01*
X140401533Y-66847261D01*
X140542269Y-66706525D01*
X140567925Y-66791103D01*
X140626147Y-66900028D01*
X140704499Y-66995501D01*
X140799972Y-67073853D01*
X140908897Y-67132075D01*
X141027087Y-67167927D01*
X141150000Y-67180033D01*
X142850000Y-67180033D01*
X142972913Y-67167927D01*
X143091103Y-67132075D01*
X143200028Y-67073853D01*
X143295501Y-66995501D01*
X143373853Y-66900028D01*
X143432075Y-66791103D01*
X143467927Y-66672913D01*
X143480033Y-66550000D01*
X143480033Y-64850000D01*
X143467927Y-64727087D01*
X143432075Y-64608897D01*
X143373853Y-64499972D01*
X143295501Y-64404499D01*
X143200028Y-64326147D01*
X143091103Y-64267925D01*
X142972913Y-64232073D01*
X142850000Y-64219967D01*
X141150000Y-64219967D01*
X141027087Y-64232073D01*
X140908897Y-64267925D01*
X140799972Y-64326147D01*
X140704499Y-64404499D01*
X140626147Y-64499972D01*
X140567925Y-64608897D01*
X140542269Y-64693475D01*
X140401533Y-64552739D01*
X140159622Y-64391099D01*
X139890825Y-64279760D01*
X139605472Y-64223000D01*
X139314528Y-64223000D01*
X139029175Y-64279760D01*
X138760378Y-64391099D01*
X138518467Y-64552739D01*
X138312739Y-64758467D01*
X138190000Y-64942159D01*
X138067261Y-64758467D01*
X137861533Y-64552739D01*
X137619622Y-64391099D01*
X137350825Y-64279760D01*
X137065472Y-64223000D01*
X136774528Y-64223000D01*
X136489175Y-64279760D01*
X136220378Y-64391099D01*
X135978467Y-64552739D01*
X135772739Y-64758467D01*
X135650000Y-64942159D01*
X135527261Y-64758467D01*
X135321533Y-64552739D01*
X135079622Y-64391099D01*
X134810825Y-64279760D01*
X134525472Y-64223000D01*
X134234528Y-64223000D01*
X133949175Y-64279760D01*
X133680378Y-64391099D01*
X133438467Y-64552739D01*
X133232739Y-64758467D01*
X133110000Y-64942159D01*
X132987261Y-64758467D01*
X132781533Y-64552739D01*
X132539622Y-64391099D01*
X132270825Y-64279760D01*
X131985472Y-64223000D01*
X131694528Y-64223000D01*
X131409175Y-64279760D01*
X131140378Y-64391099D01*
X130898467Y-64552739D01*
X130692739Y-64758467D01*
X130571686Y-64939636D01*
X130554002Y-64904571D01*
X130374726Y-64675211D01*
X130154149Y-64485233D01*
X129900747Y-64341938D01*
X129624259Y-64250833D01*
X129554994Y-64237057D01*
X129323000Y-64373949D01*
X129277000Y-64373949D01*
X129045006Y-64237057D01*
X128975741Y-64250833D01*
X128699253Y-64341938D01*
X128445851Y-64485233D01*
X128225274Y-64675211D01*
X128045998Y-64904571D01*
X127914913Y-65164499D01*
X127837056Y-65445006D01*
X98652000Y-65445006D01*
X98652000Y-64004994D01*
X101247056Y-64004994D01*
X101324913Y-64285501D01*
X101455998Y-64545429D01*
X101635274Y-64774789D01*
X101855851Y-64964767D01*
X102109253Y-65108062D01*
X102385741Y-65199167D01*
X102455006Y-65212943D01*
X102687000Y-65076051D01*
X102687000Y-63773000D01*
X101383927Y-63773000D01*
X101247056Y-64004994D01*
X98652000Y-64004994D01*
X98652000Y-63967978D01*
X98649249Y-63940050D01*
X98649292Y-63933924D01*
X98648404Y-63924864D01*
X98628003Y-63730768D01*
X98616110Y-63672829D01*
X98605047Y-63614836D01*
X98602417Y-63606121D01*
X98568022Y-63495006D01*
X101247056Y-63495006D01*
X101383927Y-63727000D01*
X102687000Y-63727000D01*
X102687000Y-62423949D01*
X102733000Y-62423949D01*
X102733000Y-63727000D01*
X102753000Y-63727000D01*
X102753000Y-63773000D01*
X102733000Y-63773000D01*
X102733000Y-65076051D01*
X102964994Y-65212943D01*
X103034259Y-65199167D01*
X103310747Y-65108062D01*
X103564149Y-64964767D01*
X103784726Y-64774789D01*
X103794151Y-64762731D01*
X103817925Y-64841103D01*
X103876147Y-64950028D01*
X103954499Y-65045501D01*
X104049972Y-65123853D01*
X104158897Y-65182075D01*
X104277087Y-65217927D01*
X104400000Y-65230033D01*
X106100000Y-65230033D01*
X106222913Y-65217927D01*
X106341103Y-65182075D01*
X106450028Y-65123853D01*
X106545501Y-65045501D01*
X106623853Y-64950028D01*
X106682075Y-64841103D01*
X106717927Y-64722913D01*
X106730033Y-64600000D01*
X106730033Y-62900000D01*
X106717927Y-62777087D01*
X106682075Y-62658897D01*
X106623853Y-62549972D01*
X106545501Y-62454499D01*
X106450028Y-62376147D01*
X106341103Y-62317925D01*
X106222913Y-62282073D01*
X106100000Y-62269967D01*
X104400000Y-62269967D01*
X104277087Y-62282073D01*
X104158897Y-62317925D01*
X104049972Y-62376147D01*
X103954499Y-62454499D01*
X103876147Y-62549972D01*
X103817925Y-62658897D01*
X103794151Y-62737269D01*
X103784726Y-62725211D01*
X103564149Y-62535233D01*
X103310747Y-62391938D01*
X103034259Y-62300833D01*
X102964994Y-62287057D01*
X102733000Y-62423949D01*
X102687000Y-62423949D01*
X102455006Y-62287057D01*
X102385741Y-62300833D01*
X102109253Y-62391938D01*
X101855851Y-62535233D01*
X101635274Y-62725211D01*
X101455998Y-62954571D01*
X101324913Y-63214499D01*
X101247056Y-63495006D01*
X98568022Y-63495006D01*
X98544705Y-63419683D01*
X98521798Y-63365191D01*
X98499668Y-63310416D01*
X98495394Y-63302378D01*
X98495394Y-63302377D01*
X98495391Y-63302373D01*
X98402569Y-63130701D01*
X98369502Y-63081675D01*
X98337165Y-63032260D01*
X98331412Y-63025205D01*
X98207008Y-62874828D01*
X98165067Y-62833178D01*
X98123731Y-62790968D01*
X98116717Y-62785165D01*
X97965475Y-62661815D01*
X97916226Y-62629094D01*
X97867495Y-62595727D01*
X97859492Y-62591400D01*
X97859488Y-62591397D01*
X97859484Y-62591395D01*
X97687165Y-62499772D01*
X97632504Y-62477242D01*
X97578215Y-62453974D01*
X97569525Y-62451284D01*
X97569518Y-62451281D01*
X97569511Y-62451280D01*
X97382682Y-62394873D01*
X97324674Y-62383386D01*
X97266912Y-62371109D01*
X97257869Y-62370158D01*
X97257858Y-62370156D01*
X97257848Y-62370156D01*
X97063625Y-62351112D01*
X97063618Y-62351112D01*
X97032022Y-62348000D01*
X27652000Y-62348000D01*
X27652000Y-60794994D01*
X28537057Y-60794994D01*
X28550833Y-60864259D01*
X28641938Y-61140747D01*
X28785233Y-61394149D01*
X28975211Y-61614726D01*
X29204571Y-61794002D01*
X29464499Y-61925087D01*
X29745006Y-62002944D01*
X29977000Y-61866073D01*
X29977000Y-60563000D01*
X30023000Y-60563000D01*
X30023000Y-61866073D01*
X30254994Y-62002944D01*
X30535501Y-61925087D01*
X30795429Y-61794002D01*
X31024789Y-61614726D01*
X31214767Y-61394149D01*
X31358062Y-61140747D01*
X31449167Y-60864259D01*
X31462943Y-60794994D01*
X268537057Y-60794994D01*
X268550833Y-60864259D01*
X268641938Y-61140747D01*
X268785233Y-61394149D01*
X268975211Y-61614726D01*
X269204571Y-61794002D01*
X269464499Y-61925087D01*
X269745006Y-62002944D01*
X269977000Y-61866073D01*
X269977000Y-60563000D01*
X270023000Y-60563000D01*
X270023000Y-61866073D01*
X270254994Y-62002944D01*
X270535501Y-61925087D01*
X270795429Y-61794002D01*
X271024789Y-61614726D01*
X271214767Y-61394149D01*
X271358062Y-61140747D01*
X271449167Y-60864259D01*
X271462943Y-60794994D01*
X271326051Y-60563000D01*
X270023000Y-60563000D01*
X269977000Y-60563000D01*
X268673949Y-60563000D01*
X268537057Y-60794994D01*
X31462943Y-60794994D01*
X31326051Y-60563000D01*
X30023000Y-60563000D01*
X29977000Y-60563000D01*
X28673949Y-60563000D01*
X28537057Y-60794994D01*
X27652000Y-60794994D01*
X27652000Y-54610000D01*
X28519967Y-54610000D01*
X28519967Y-56310000D01*
X28532073Y-56432913D01*
X28567925Y-56551103D01*
X28626147Y-56660028D01*
X28704499Y-56755501D01*
X28799972Y-56833853D01*
X28908897Y-56892075D01*
X28993475Y-56917731D01*
X28852739Y-57058467D01*
X28691099Y-57300378D01*
X28579760Y-57569175D01*
X28523000Y-57854528D01*
X28523000Y-58145472D01*
X28579760Y-58430825D01*
X28691099Y-58699622D01*
X28852739Y-58941533D01*
X29058467Y-59147261D01*
X29239636Y-59268314D01*
X29204571Y-59285998D01*
X28975211Y-59465274D01*
X28785233Y-59685851D01*
X28641938Y-59939253D01*
X28550833Y-60215741D01*
X28537057Y-60285006D01*
X28673949Y-60517000D01*
X29977000Y-60517000D01*
X29977000Y-60497000D01*
X30023000Y-60497000D01*
X30023000Y-60517000D01*
X31326051Y-60517000D01*
X31462943Y-60285006D01*
X31449167Y-60215741D01*
X31358062Y-59939253D01*
X31214767Y-59685851D01*
X31024789Y-59465274D01*
X30795429Y-59285998D01*
X30760364Y-59268314D01*
X30941533Y-59147261D01*
X31147261Y-58941533D01*
X31308901Y-58699622D01*
X31420240Y-58430825D01*
X31477000Y-58145472D01*
X31477000Y-57854528D01*
X31420240Y-57569175D01*
X31308901Y-57300378D01*
X31147261Y-57058467D01*
X31006525Y-56917731D01*
X31091103Y-56892075D01*
X31200028Y-56833853D01*
X31295501Y-56755501D01*
X31373853Y-56660028D01*
X31432075Y-56551103D01*
X31467927Y-56432913D01*
X31480033Y-56310000D01*
X31480033Y-54610000D01*
X268519967Y-54610000D01*
X268519967Y-56310000D01*
X268532073Y-56432913D01*
X268567925Y-56551103D01*
X268626147Y-56660028D01*
X268704499Y-56755501D01*
X268799972Y-56833853D01*
X268908897Y-56892075D01*
X268993475Y-56917731D01*
X268852739Y-57058467D01*
X268691099Y-57300378D01*
X268579760Y-57569175D01*
X268523000Y-57854528D01*
X268523000Y-58145472D01*
X268579760Y-58430825D01*
X268691099Y-58699622D01*
X268852739Y-58941533D01*
X269058467Y-59147261D01*
X269239636Y-59268314D01*
X269204571Y-59285998D01*
X268975211Y-59465274D01*
X268785233Y-59685851D01*
X268641938Y-59939253D01*
X268550833Y-60215741D01*
X268537057Y-60285006D01*
X268673949Y-60517000D01*
X269977000Y-60517000D01*
X269977000Y-60497000D01*
X270023000Y-60497000D01*
X270023000Y-60517000D01*
X271326051Y-60517000D01*
X271462943Y-60285006D01*
X271449167Y-60215741D01*
X271358062Y-59939253D01*
X271214767Y-59685851D01*
X271024789Y-59465274D01*
X270795429Y-59285998D01*
X270760364Y-59268314D01*
X270941533Y-59147261D01*
X271147261Y-58941533D01*
X271308901Y-58699622D01*
X271420240Y-58430825D01*
X271477000Y-58145472D01*
X271477000Y-57854528D01*
X271420240Y-57569175D01*
X271308901Y-57300378D01*
X271147261Y-57058467D01*
X271006525Y-56917731D01*
X271091103Y-56892075D01*
X271200028Y-56833853D01*
X271295501Y-56755501D01*
X271373853Y-56660028D01*
X271432075Y-56551103D01*
X271467927Y-56432913D01*
X271480033Y-56310000D01*
X271480033Y-54610000D01*
X271467927Y-54487087D01*
X271432075Y-54368897D01*
X271373853Y-54259972D01*
X271295501Y-54164499D01*
X271200028Y-54086147D01*
X271091103Y-54027925D01*
X270972913Y-53992073D01*
X270850000Y-53979967D01*
X269150000Y-53979967D01*
X269027087Y-53992073D01*
X268908897Y-54027925D01*
X268799972Y-54086147D01*
X268704499Y-54164499D01*
X268626147Y-54259972D01*
X268567925Y-54368897D01*
X268532073Y-54487087D01*
X268519967Y-54610000D01*
X31480033Y-54610000D01*
X31467927Y-54487087D01*
X31432075Y-54368897D01*
X31373853Y-54259972D01*
X31295501Y-54164499D01*
X31200028Y-54086147D01*
X31091103Y-54027925D01*
X30972913Y-53992073D01*
X30850000Y-53979967D01*
X29150000Y-53979967D01*
X29027087Y-53992073D01*
X28908897Y-54027925D01*
X28799972Y-54086147D01*
X28704499Y-54164499D01*
X28626147Y-54259972D01*
X28567925Y-54368897D01*
X28532073Y-54487087D01*
X28519967Y-54610000D01*
X27652000Y-54610000D01*
X27652000Y-53652000D01*
X272348001Y-53652000D01*
X272348000Y-62348000D01*
G37*
X272348000Y-62348000D02*
X148967978Y-62348000D01*
X148940050Y-62350751D01*
X148933924Y-62350708D01*
X148924864Y-62351596D01*
X148730768Y-62371997D01*
X148672829Y-62383890D01*
X148614836Y-62394953D01*
X148606121Y-62397583D01*
X148419683Y-62455295D01*
X148365191Y-62478202D01*
X148310416Y-62500332D01*
X148302382Y-62504604D01*
X148302377Y-62504606D01*
X148302376Y-62504607D01*
X148130701Y-62597431D01*
X148081675Y-62630498D01*
X148032260Y-62662835D01*
X148025205Y-62668588D01*
X147874828Y-62792992D01*
X147833178Y-62834933D01*
X147790968Y-62876269D01*
X147785165Y-62883283D01*
X147661815Y-63034525D01*
X147629094Y-63083774D01*
X147595727Y-63132505D01*
X147591400Y-63140508D01*
X147591397Y-63140512D01*
X147591397Y-63140513D01*
X147499772Y-63312835D01*
X147477242Y-63367496D01*
X147453974Y-63421785D01*
X147451284Y-63430475D01*
X147451281Y-63430482D01*
X147451280Y-63430489D01*
X147394873Y-63617318D01*
X147383386Y-63675326D01*
X147371109Y-63733088D01*
X147370158Y-63742131D01*
X147370156Y-63742142D01*
X147370156Y-63742152D01*
X147351112Y-63936375D01*
X147351112Y-63936383D01*
X147348000Y-63967979D01*
X147348001Y-70968104D01*
X147338305Y-71066986D01*
X147318852Y-71131420D01*
X147287252Y-71190850D01*
X147244713Y-71243009D01*
X147192849Y-71285915D01*
X147133648Y-71317924D01*
X147069344Y-71337830D01*
X146972583Y-71348000D01*
X99031886Y-71348000D01*
X98933014Y-71338305D01*
X98868580Y-71318852D01*
X98809150Y-71287252D01*
X98756991Y-71244713D01*
X98714085Y-71192849D01*
X98682076Y-71133648D01*
X98662170Y-71069344D01*
X98652000Y-70972583D01*
X98652000Y-65954994D01*
X127837056Y-65954994D01*
X127914913Y-66235501D01*
X128045998Y-66495429D01*
X128225274Y-66724789D01*
X128445851Y-66914767D01*
X128699253Y-67058062D01*
X128975741Y-67149167D01*
X129045006Y-67162943D01*
X129277000Y-67026051D01*
X129277000Y-65723000D01*
X127973927Y-65723000D01*
X127837056Y-65954994D01*
X98652000Y-65954994D01*
X98652000Y-65445006D01*
X127837056Y-65445006D01*
X127973927Y-65677000D01*
X129277000Y-65677000D01*
X129277000Y-64373949D01*
X129323000Y-64373949D01*
X129323000Y-65677000D01*
X129343000Y-65677000D01*
X129343000Y-65723000D01*
X129323000Y-65723000D01*
X129323000Y-67026051D01*
X129554994Y-67162943D01*
X129624259Y-67149167D01*
X129900747Y-67058062D01*
X130154149Y-66914767D01*
X130374726Y-66724789D01*
X130554002Y-66495429D01*
X130571686Y-66460364D01*
X130692739Y-66641533D01*
X130898467Y-66847261D01*
X131140378Y-67008901D01*
X131409175Y-67120240D01*
X131694528Y-67177000D01*
X131985472Y-67177000D01*
X132270825Y-67120240D01*
X132539622Y-67008901D01*
X132781533Y-66847261D01*
X132987261Y-66641533D01*
X133110000Y-66457841D01*
X133232739Y-66641533D01*
X133438467Y-66847261D01*
X133680378Y-67008901D01*
X133949175Y-67120240D01*
X134234528Y-67177000D01*
X134525472Y-67177000D01*
X134810825Y-67120240D01*
X135079622Y-67008901D01*
X135321533Y-66847261D01*
X135527261Y-66641533D01*
X135650000Y-66457841D01*
X135772739Y-66641533D01*
X135978467Y-66847261D01*
X136220378Y-67008901D01*
X136489175Y-67120240D01*
X136774528Y-67177000D01*
X137065472Y-67177000D01*
X137350825Y-67120240D01*
X137619622Y-67008901D01*
X137861533Y-66847261D01*
X138067261Y-66641533D01*
X138190000Y-66457841D01*
X138312739Y-66641533D01*
X138518467Y-66847261D01*
X138760378Y-67008901D01*
X139029175Y-67120240D01*
X139314528Y-67177000D01*
X139605472Y-67177000D01*
X139890825Y-67120240D01*
X140159622Y-67008901D01*
X140401533Y-66847261D01*
X140542269Y-66706525D01*
X140567925Y-66791103D01*
X140626147Y-66900028D01*
X140704499Y-66995501D01*
X140799972Y-67073853D01*
X140908897Y-67132075D01*
X141027087Y-67167927D01*
X141150000Y-67180033D01*
X142850000Y-67180033D01*
X142972913Y-67167927D01*
X143091103Y-67132075D01*
X143200028Y-67073853D01*
X143295501Y-66995501D01*
X143373853Y-66900028D01*
X143432075Y-66791103D01*
X143467927Y-66672913D01*
X143480033Y-66550000D01*
X143480033Y-64850000D01*
X143467927Y-64727087D01*
X143432075Y-64608897D01*
X143373853Y-64499972D01*
X143295501Y-64404499D01*
X143200028Y-64326147D01*
X143091103Y-64267925D01*
X142972913Y-64232073D01*
X142850000Y-64219967D01*
X141150000Y-64219967D01*
X141027087Y-64232073D01*
X140908897Y-64267925D01*
X140799972Y-64326147D01*
X140704499Y-64404499D01*
X140626147Y-64499972D01*
X140567925Y-64608897D01*
X140542269Y-64693475D01*
X140401533Y-64552739D01*
X140159622Y-64391099D01*
X139890825Y-64279760D01*
X139605472Y-64223000D01*
X139314528Y-64223000D01*
X139029175Y-64279760D01*
X138760378Y-64391099D01*
X138518467Y-64552739D01*
X138312739Y-64758467D01*
X138190000Y-64942159D01*
X138067261Y-64758467D01*
X137861533Y-64552739D01*
X137619622Y-64391099D01*
X137350825Y-64279760D01*
X137065472Y-64223000D01*
X136774528Y-64223000D01*
X136489175Y-64279760D01*
X136220378Y-64391099D01*
X135978467Y-64552739D01*
X135772739Y-64758467D01*
X135650000Y-64942159D01*
X135527261Y-64758467D01*
X135321533Y-64552739D01*
X135079622Y-64391099D01*
X134810825Y-64279760D01*
X134525472Y-64223000D01*
X134234528Y-64223000D01*
X133949175Y-64279760D01*
X133680378Y-64391099D01*
X133438467Y-64552739D01*
X133232739Y-64758467D01*
X133110000Y-64942159D01*
X132987261Y-64758467D01*
X132781533Y-64552739D01*
X132539622Y-64391099D01*
X132270825Y-64279760D01*
X131985472Y-64223000D01*
X131694528Y-64223000D01*
X131409175Y-64279760D01*
X131140378Y-64391099D01*
X130898467Y-64552739D01*
X130692739Y-64758467D01*
X130571686Y-64939636D01*
X130554002Y-64904571D01*
X130374726Y-64675211D01*
X130154149Y-64485233D01*
X129900747Y-64341938D01*
X129624259Y-64250833D01*
X129554994Y-64237057D01*
X129323000Y-64373949D01*
X129277000Y-64373949D01*
X129045006Y-64237057D01*
X128975741Y-64250833D01*
X128699253Y-64341938D01*
X128445851Y-64485233D01*
X128225274Y-64675211D01*
X128045998Y-64904571D01*
X127914913Y-65164499D01*
X127837056Y-65445006D01*
X98652000Y-65445006D01*
X98652000Y-64004994D01*
X101247056Y-64004994D01*
X101324913Y-64285501D01*
X101455998Y-64545429D01*
X101635274Y-64774789D01*
X101855851Y-64964767D01*
X102109253Y-65108062D01*
X102385741Y-65199167D01*
X102455006Y-65212943D01*
X102687000Y-65076051D01*
X102687000Y-63773000D01*
X101383927Y-63773000D01*
X101247056Y-64004994D01*
X98652000Y-64004994D01*
X98652000Y-63967978D01*
X98649249Y-63940050D01*
X98649292Y-63933924D01*
X98648404Y-63924864D01*
X98628003Y-63730768D01*
X98616110Y-63672829D01*
X98605047Y-63614836D01*
X98602417Y-63606121D01*
X98568022Y-63495006D01*
X101247056Y-63495006D01*
X101383927Y-63727000D01*
X102687000Y-63727000D01*
X102687000Y-62423949D01*
X102733000Y-62423949D01*
X102733000Y-63727000D01*
X102753000Y-63727000D01*
X102753000Y-63773000D01*
X102733000Y-63773000D01*
X102733000Y-65076051D01*
X102964994Y-65212943D01*
X103034259Y-65199167D01*
X103310747Y-65108062D01*
X103564149Y-64964767D01*
X103784726Y-64774789D01*
X103794151Y-64762731D01*
X103817925Y-64841103D01*
X103876147Y-64950028D01*
X103954499Y-65045501D01*
X104049972Y-65123853D01*
X104158897Y-65182075D01*
X104277087Y-65217927D01*
X104400000Y-65230033D01*
X106100000Y-65230033D01*
X106222913Y-65217927D01*
X106341103Y-65182075D01*
X106450028Y-65123853D01*
X106545501Y-65045501D01*
X106623853Y-64950028D01*
X106682075Y-64841103D01*
X106717927Y-64722913D01*
X106730033Y-64600000D01*
X106730033Y-62900000D01*
X106717927Y-62777087D01*
X106682075Y-62658897D01*
X106623853Y-62549972D01*
X106545501Y-62454499D01*
X106450028Y-62376147D01*
X106341103Y-62317925D01*
X106222913Y-62282073D01*
X106100000Y-62269967D01*
X104400000Y-62269967D01*
X104277087Y-62282073D01*
X104158897Y-62317925D01*
X104049972Y-62376147D01*
X103954499Y-62454499D01*
X103876147Y-62549972D01*
X103817925Y-62658897D01*
X103794151Y-62737269D01*
X103784726Y-62725211D01*
X103564149Y-62535233D01*
X103310747Y-62391938D01*
X103034259Y-62300833D01*
X102964994Y-62287057D01*
X102733000Y-62423949D01*
X102687000Y-62423949D01*
X102455006Y-62287057D01*
X102385741Y-62300833D01*
X102109253Y-62391938D01*
X101855851Y-62535233D01*
X101635274Y-62725211D01*
X101455998Y-62954571D01*
X101324913Y-63214499D01*
X101247056Y-63495006D01*
X98568022Y-63495006D01*
X98544705Y-63419683D01*
X98521798Y-63365191D01*
X98499668Y-63310416D01*
X98495394Y-63302378D01*
X98495394Y-63302377D01*
X98495391Y-63302373D01*
X98402569Y-63130701D01*
X98369502Y-63081675D01*
X98337165Y-63032260D01*
X98331412Y-63025205D01*
X98207008Y-62874828D01*
X98165067Y-62833178D01*
X98123731Y-62790968D01*
X98116717Y-62785165D01*
X97965475Y-62661815D01*
X97916226Y-62629094D01*
X97867495Y-62595727D01*
X97859492Y-62591400D01*
X97859488Y-62591397D01*
X97859484Y-62591395D01*
X97687165Y-62499772D01*
X97632504Y-62477242D01*
X97578215Y-62453974D01*
X97569525Y-62451284D01*
X97569518Y-62451281D01*
X97569511Y-62451280D01*
X97382682Y-62394873D01*
X97324674Y-62383386D01*
X97266912Y-62371109D01*
X97257869Y-62370158D01*
X97257858Y-62370156D01*
X97257848Y-62370156D01*
X97063625Y-62351112D01*
X97063618Y-62351112D01*
X97032022Y-62348000D01*
X27652000Y-62348000D01*
X27652000Y-60794994D01*
X28537057Y-60794994D01*
X28550833Y-60864259D01*
X28641938Y-61140747D01*
X28785233Y-61394149D01*
X28975211Y-61614726D01*
X29204571Y-61794002D01*
X29464499Y-61925087D01*
X29745006Y-62002944D01*
X29977000Y-61866073D01*
X29977000Y-60563000D01*
X30023000Y-60563000D01*
X30023000Y-61866073D01*
X30254994Y-62002944D01*
X30535501Y-61925087D01*
X30795429Y-61794002D01*
X31024789Y-61614726D01*
X31214767Y-61394149D01*
X31358062Y-61140747D01*
X31449167Y-60864259D01*
X31462943Y-60794994D01*
X268537057Y-60794994D01*
X268550833Y-60864259D01*
X268641938Y-61140747D01*
X268785233Y-61394149D01*
X268975211Y-61614726D01*
X269204571Y-61794002D01*
X269464499Y-61925087D01*
X269745006Y-62002944D01*
X269977000Y-61866073D01*
X269977000Y-60563000D01*
X270023000Y-60563000D01*
X270023000Y-61866073D01*
X270254994Y-62002944D01*
X270535501Y-61925087D01*
X270795429Y-61794002D01*
X271024789Y-61614726D01*
X271214767Y-61394149D01*
X271358062Y-61140747D01*
X271449167Y-60864259D01*
X271462943Y-60794994D01*
X271326051Y-60563000D01*
X270023000Y-60563000D01*
X269977000Y-60563000D01*
X268673949Y-60563000D01*
X268537057Y-60794994D01*
X31462943Y-60794994D01*
X31326051Y-60563000D01*
X30023000Y-60563000D01*
X29977000Y-60563000D01*
X28673949Y-60563000D01*
X28537057Y-60794994D01*
X27652000Y-60794994D01*
X27652000Y-54610000D01*
X28519967Y-54610000D01*
X28519967Y-56310000D01*
X28532073Y-56432913D01*
X28567925Y-56551103D01*
X28626147Y-56660028D01*
X28704499Y-56755501D01*
X28799972Y-56833853D01*
X28908897Y-56892075D01*
X28993475Y-56917731D01*
X28852739Y-57058467D01*
X28691099Y-57300378D01*
X28579760Y-57569175D01*
X28523000Y-57854528D01*
X28523000Y-58145472D01*
X28579760Y-58430825D01*
X28691099Y-58699622D01*
X28852739Y-58941533D01*
X29058467Y-59147261D01*
X29239636Y-59268314D01*
X29204571Y-59285998D01*
X28975211Y-59465274D01*
X28785233Y-59685851D01*
X28641938Y-59939253D01*
X28550833Y-60215741D01*
X28537057Y-60285006D01*
X28673949Y-60517000D01*
X29977000Y-60517000D01*
X29977000Y-60497000D01*
X30023000Y-60497000D01*
X30023000Y-60517000D01*
X31326051Y-60517000D01*
X31462943Y-60285006D01*
X31449167Y-60215741D01*
X31358062Y-59939253D01*
X31214767Y-59685851D01*
X31024789Y-59465274D01*
X30795429Y-59285998D01*
X30760364Y-59268314D01*
X30941533Y-59147261D01*
X31147261Y-58941533D01*
X31308901Y-58699622D01*
X31420240Y-58430825D01*
X31477000Y-58145472D01*
X31477000Y-57854528D01*
X31420240Y-57569175D01*
X31308901Y-57300378D01*
X31147261Y-57058467D01*
X31006525Y-56917731D01*
X31091103Y-56892075D01*
X31200028Y-56833853D01*
X31295501Y-56755501D01*
X31373853Y-56660028D01*
X31432075Y-56551103D01*
X31467927Y-56432913D01*
X31480033Y-56310000D01*
X31480033Y-54610000D01*
X268519967Y-54610000D01*
X268519967Y-56310000D01*
X268532073Y-56432913D01*
X268567925Y-56551103D01*
X268626147Y-56660028D01*
X268704499Y-56755501D01*
X268799972Y-56833853D01*
X268908897Y-56892075D01*
X268993475Y-56917731D01*
X268852739Y-57058467D01*
X268691099Y-57300378D01*
X268579760Y-57569175D01*
X268523000Y-57854528D01*
X268523000Y-58145472D01*
X268579760Y-58430825D01*
X268691099Y-58699622D01*
X268852739Y-58941533D01*
X269058467Y-59147261D01*
X269239636Y-59268314D01*
X269204571Y-59285998D01*
X268975211Y-59465274D01*
X268785233Y-59685851D01*
X268641938Y-59939253D01*
X268550833Y-60215741D01*
X268537057Y-60285006D01*
X268673949Y-60517000D01*
X269977000Y-60517000D01*
X269977000Y-60497000D01*
X270023000Y-60497000D01*
X270023000Y-60517000D01*
X271326051Y-60517000D01*
X271462943Y-60285006D01*
X271449167Y-60215741D01*
X271358062Y-59939253D01*
X271214767Y-59685851D01*
X271024789Y-59465274D01*
X270795429Y-59285998D01*
X270760364Y-59268314D01*
X270941533Y-59147261D01*
X271147261Y-58941533D01*
X271308901Y-58699622D01*
X271420240Y-58430825D01*
X271477000Y-58145472D01*
X271477000Y-57854528D01*
X271420240Y-57569175D01*
X271308901Y-57300378D01*
X271147261Y-57058467D01*
X271006525Y-56917731D01*
X271091103Y-56892075D01*
X271200028Y-56833853D01*
X271295501Y-56755501D01*
X271373853Y-56660028D01*
X271432075Y-56551103D01*
X271467927Y-56432913D01*
X271480033Y-56310000D01*
X271480033Y-54610000D01*
X271467927Y-54487087D01*
X271432075Y-54368897D01*
X271373853Y-54259972D01*
X271295501Y-54164499D01*
X271200028Y-54086147D01*
X271091103Y-54027925D01*
X270972913Y-53992073D01*
X270850000Y-53979967D01*
X269150000Y-53979967D01*
X269027087Y-53992073D01*
X268908897Y-54027925D01*
X268799972Y-54086147D01*
X268704499Y-54164499D01*
X268626147Y-54259972D01*
X268567925Y-54368897D01*
X268532073Y-54487087D01*
X268519967Y-54610000D01*
X31480033Y-54610000D01*
X31467927Y-54487087D01*
X31432075Y-54368897D01*
X31373853Y-54259972D01*
X31295501Y-54164499D01*
X31200028Y-54086147D01*
X31091103Y-54027925D01*
X30972913Y-53992073D01*
X30850000Y-53979967D01*
X29150000Y-53979967D01*
X29027087Y-53992073D01*
X28908897Y-54027925D01*
X28799972Y-54086147D01*
X28704499Y-54164499D01*
X28626147Y-54259972D01*
X28567925Y-54368897D01*
X28532073Y-54487087D01*
X28519967Y-54610000D01*
X27652000Y-54610000D01*
X27652000Y-53652000D01*
X272348001Y-53652000D01*
X272348000Y-62348000D01*
%TD*%
M02*
