M48
; DRILL file {KiCad (5.1.6)-1} date 02/12/21 09:00:25
; FORMAT={-:-/ absolute / inch / decimal}
; #@! TF.CreationDate,2021-02-12T09:00:25-06:00
; #@! TF.GenerationSoftware,Kicad,Pcbnew,(5.1.6)-1
; #@! TF.FileFunction,Plated,1,2,PTH
FMAT,2
INCH
T1C0.0157
T2C0.0394
%
G90
G05
T1
X1.2697Y-2.2835
X1.7323Y-2.2835
X2.2441Y-2.2835
X2.6772Y-2.2835
X3.1496Y-2.2835
X3.622Y-2.2835
X4.0945Y-2.2835
X4.4409Y-2.752
X4.5669Y-2.2835
X5.0197Y-2.5591
X5.0197Y-2.6476
X5.0394Y-2.2835
X5.4528Y-2.7165
X5.5118Y-2.2835
X5.9843Y-2.2835
X6.4567Y-2.2835
X6.9291Y-2.2835
X7.4016Y-2.2835
X7.8642Y-2.2835
X8.3465Y-2.2835
X8.8189Y-2.2835
X9.252Y-2.2835
X9.7736Y-2.2835
X10.2362Y-2.2835
T2
X10.6299Y-2.1835
X10.6299Y-2.2835
X10.6299Y-2.3835
X1.1811Y-2.1835
X1.1811Y-2.2835
X1.1811Y-2.3835
X4.0437Y-2.5098
X4.1437Y-2.5098
X5.0906Y-2.5866
X5.1906Y-2.5866
X5.2906Y-2.5866
X5.3906Y-2.5866
X5.4906Y-2.5866
X5.5906Y-2.5866
T0
M30
